<svg xmlns="http://www.w3.org/2000/svg" xmlns:xlink="http://www.w3.org/1999/xlink" width="500" zoomAndPan="magnify" viewBox="0 0 375 374.999991" height="500" preserveAspectRatio="xMidYMid meet" version="1.0"><defs><clipPath id="b71c4c431f"><path d="M 23.578125 23.578125 L 351.421875 23.578125 L 351.421875 351.421875 L 23.578125 351.421875 Z M 23.578125 23.578125 " clip-rule="nonzero"/></clipPath><clipPath id="9cb8a67d91"><path d="M 187.5 23.578125 C 96.96875 23.578125 23.578125 96.96875 23.578125 187.5 C 23.578125 278.03125 96.96875 351.421875 187.5 351.421875 C 278.03125 351.421875 351.421875 278.03125 351.421875 187.5 C 351.421875 96.96875 278.03125 23.578125 187.5 23.578125 Z M 187.5 23.578125 " clip-rule="nonzero"/></clipPath><linearGradient x1="128" gradientTransform="matrix(1.280629, 0, 0, 1.280629, 23.57955, 23.579589)" y1="-0.000000892127" x2="128" gradientUnits="userSpaceOnUse" y2="255.999985" id="59f0889fca"><stop stop-opacity="1" stop-color="rgb(1.199341%, 16.499329%, 17.298889%)" offset="0"/><stop stop-opacity="1" stop-color="rgb(1.194763%, 16.702271%, 17.477417%)" offset="0.00390625"/><stop stop-opacity="1" stop-color="rgb(1.190186%, 16.906738%, 17.657471%)" offset="0.0078125"/><stop stop-opacity="1" stop-color="rgb(1.185608%, 17.10968%, 17.835999%)" offset="0.0117188"/><stop stop-opacity="1" stop-color="rgb(1.18103%, 17.312622%, 18.014526%)" offset="0.015625"/><stop stop-opacity="1" stop-color="rgb(1.176453%, 17.515564%, 18.193054%)" offset="0.0195312"/><stop stop-opacity="1" stop-color="rgb(1.171875%, 17.720032%, 18.373108%)" offset="0.0234375"/><stop stop-opacity="1" stop-color="rgb(1.165771%, 17.922974%, 18.551636%)" offset="0.0273438"/><stop stop-opacity="1" stop-color="rgb(1.161194%, 18.127441%, 18.730164%)" offset="0.03125"/><stop stop-opacity="1" stop-color="rgb(1.156616%, 18.330383%, 18.908691%)" offset="0.0351562"/><stop stop-opacity="1" stop-color="rgb(1.152039%, 18.534851%, 19.088745%)" offset="0.0390625"/><stop stop-opacity="1" stop-color="rgb(1.147461%, 18.737793%, 19.267273%)" offset="0.0429688"/><stop stop-opacity="1" stop-color="rgb(1.142883%, 18.940735%, 19.445801%)" offset="0.046875"/><stop stop-opacity="1" stop-color="rgb(1.138306%, 19.143677%, 19.624329%)" offset="0.0507812"/><stop stop-opacity="1" stop-color="rgb(1.133728%, 19.348145%, 19.804382%)" offset="0.0546875"/><stop stop-opacity="1" stop-color="rgb(1.12915%, 19.551086%, 19.98291%)" offset="0.0585938"/><stop stop-opacity="1" stop-color="rgb(1.124573%, 19.755554%, 20.161438%)" offset="0.0625"/><stop stop-opacity="1" stop-color="rgb(1.119995%, 19.958496%, 20.339966%)" offset="0.0664062"/><stop stop-opacity="1" stop-color="rgb(1.115417%, 20.162964%, 20.52002%)" offset="0.0703125"/><stop stop-opacity="1" stop-color="rgb(1.109314%, 20.365906%, 20.698547%)" offset="0.0742187"/><stop stop-opacity="1" stop-color="rgb(1.104736%, 20.568848%, 20.877075%)" offset="0.078125"/><stop stop-opacity="1" stop-color="rgb(1.100159%, 20.77179%, 21.055603%)" offset="0.0820312"/><stop stop-opacity="1" stop-color="rgb(1.095581%, 20.976257%, 21.235657%)" offset="0.0859375"/><stop stop-opacity="1" stop-color="rgb(1.091003%, 21.179199%, 21.414185%)" offset="0.0898438"/><stop stop-opacity="1" stop-color="rgb(1.086426%, 21.383667%, 21.592712%)" offset="0.09375"/><stop stop-opacity="1" stop-color="rgb(1.081848%, 21.586609%, 21.77124%)" offset="0.0976562"/><stop stop-opacity="1" stop-color="rgb(1.077271%, 21.791077%, 21.951294%)" offset="0.101562"/><stop stop-opacity="1" stop-color="rgb(1.072693%, 21.994019%, 22.129822%)" offset="0.105469"/><stop stop-opacity="1" stop-color="rgb(1.068115%, 22.19696%, 22.30835%)" offset="0.109375"/><stop stop-opacity="1" stop-color="rgb(1.063538%, 22.399902%, 22.486877%)" offset="0.113281"/><stop stop-opacity="1" stop-color="rgb(1.05896%, 22.60437%, 22.666931%)" offset="0.117188"/><stop stop-opacity="1" stop-color="rgb(1.054382%, 22.807312%, 22.845459%)" offset="0.121094"/><stop stop-opacity="1" stop-color="rgb(1.049805%, 23.01178%, 23.023987%)" offset="0.125"/><stop stop-opacity="1" stop-color="rgb(1.043701%, 23.214722%, 23.202515%)" offset="0.128906"/><stop stop-opacity="1" stop-color="rgb(1.039124%, 23.419189%, 23.382568%)" offset="0.132813"/><stop stop-opacity="1" stop-color="rgb(1.034546%, 23.622131%, 23.561096%)" offset="0.136719"/><stop stop-opacity="1" stop-color="rgb(1.029968%, 23.825073%, 23.739624%)" offset="0.140625"/><stop stop-opacity="1" stop-color="rgb(1.025391%, 24.028015%, 23.918152%)" offset="0.144531"/><stop stop-opacity="1" stop-color="rgb(1.020813%, 24.232483%, 24.098206%)" offset="0.148438"/><stop stop-opacity="1" stop-color="rgb(1.016235%, 24.435425%, 24.276733%)" offset="0.152344"/><stop stop-opacity="1" stop-color="rgb(1.011658%, 24.639893%, 24.455261%)" offset="0.15625"/><stop stop-opacity="1" stop-color="rgb(1.00708%, 24.842834%, 24.633789%)" offset="0.160156"/><stop stop-opacity="1" stop-color="rgb(1.002502%, 25.047302%, 24.813843%)" offset="0.164062"/><stop stop-opacity="1" stop-color="rgb(0.997925%, 25.250244%, 24.992371%)" offset="0.167969"/><stop stop-opacity="1" stop-color="rgb(0.993347%, 25.453186%, 25.170898%)" offset="0.171875"/><stop stop-opacity="1" stop-color="rgb(0.98877%, 25.656128%, 25.349426%)" offset="0.175781"/><stop stop-opacity="1" stop-color="rgb(0.984192%, 25.860596%, 25.52948%)" offset="0.179688"/><stop stop-opacity="1" stop-color="rgb(0.978088%, 26.063538%, 25.708008%)" offset="0.183594"/><stop stop-opacity="1" stop-color="rgb(0.973511%, 26.268005%, 25.886536%)" offset="0.1875"/><stop stop-opacity="1" stop-color="rgb(0.968933%, 26.470947%, 26.065063%)" offset="0.191406"/><stop stop-opacity="1" stop-color="rgb(0.964355%, 26.675415%, 26.245117%)" offset="0.195312"/><stop stop-opacity="1" stop-color="rgb(0.959778%, 26.878357%, 26.423645%)" offset="0.199219"/><stop stop-opacity="1" stop-color="rgb(0.9552%, 27.081299%, 26.602173%)" offset="0.203125"/><stop stop-opacity="1" stop-color="rgb(0.950623%, 27.284241%, 26.780701%)" offset="0.207031"/><stop stop-opacity="1" stop-color="rgb(0.946045%, 27.488708%, 26.960754%)" offset="0.210938"/><stop stop-opacity="1" stop-color="rgb(0.941467%, 27.69165%, 27.139282%)" offset="0.214844"/><stop stop-opacity="1" stop-color="rgb(0.93689%, 27.896118%, 27.31781%)" offset="0.21875"/><stop stop-opacity="1" stop-color="rgb(0.932312%, 28.09906%, 27.496338%)" offset="0.222656"/><stop stop-opacity="1" stop-color="rgb(0.927734%, 28.303528%, 27.676392%)" offset="0.226563"/><stop stop-opacity="1" stop-color="rgb(0.923157%, 28.50647%, 27.854919%)" offset="0.230469"/><stop stop-opacity="1" stop-color="rgb(0.918579%, 28.709412%, 28.033447%)" offset="0.234375"/><stop stop-opacity="1" stop-color="rgb(0.912476%, 28.912354%, 28.211975%)" offset="0.238281"/><stop stop-opacity="1" stop-color="rgb(0.907898%, 29.116821%, 28.392029%)" offset="0.242188"/><stop stop-opacity="1" stop-color="rgb(0.90332%, 29.319763%, 28.570557%)" offset="0.246094"/><stop stop-opacity="1" stop-color="rgb(0.898743%, 29.524231%, 28.749084%)" offset="0.25"/><stop stop-opacity="1" stop-color="rgb(0.894165%, 29.727173%, 28.927612%)" offset="0.253906"/><stop stop-opacity="1" stop-color="rgb(0.889587%, 29.931641%, 29.107666%)" offset="0.257813"/><stop stop-opacity="1" stop-color="rgb(0.88501%, 30.134583%, 29.286194%)" offset="0.261719"/><stop stop-opacity="1" stop-color="rgb(0.880432%, 30.33905%, 29.464722%)" offset="0.265625"/><stop stop-opacity="1" stop-color="rgb(0.875854%, 30.541992%, 29.64325%)" offset="0.269531"/><stop stop-opacity="1" stop-color="rgb(0.871277%, 30.744934%, 29.823303%)" offset="0.273438"/><stop stop-opacity="1" stop-color="rgb(0.866699%, 30.947876%, 30.001831%)" offset="0.277344"/><stop stop-opacity="1" stop-color="rgb(0.862122%, 31.152344%, 30.180359%)" offset="0.28125"/><stop stop-opacity="1" stop-color="rgb(0.857544%, 31.355286%, 30.358887%)" offset="0.285156"/><stop stop-opacity="1" stop-color="rgb(0.852966%, 31.559753%, 30.53894%)" offset="0.289062"/><stop stop-opacity="1" stop-color="rgb(0.846863%, 31.762695%, 30.717468%)" offset="0.292969"/><stop stop-opacity="1" stop-color="rgb(0.842285%, 31.967163%, 30.895996%)" offset="0.296875"/><stop stop-opacity="1" stop-color="rgb(0.837708%, 32.170105%, 31.074524%)" offset="0.300781"/><stop stop-opacity="1" stop-color="rgb(0.83313%, 32.373047%, 31.254578%)" offset="0.304688"/><stop stop-opacity="1" stop-color="rgb(0.828552%, 32.575989%, 31.433105%)" offset="0.308594"/><stop stop-opacity="1" stop-color="rgb(0.823975%, 32.780457%, 31.611633%)" offset="0.3125"/><stop stop-opacity="1" stop-color="rgb(0.819397%, 32.983398%, 31.790161%)" offset="0.316406"/><stop stop-opacity="1" stop-color="rgb(0.814819%, 33.187866%, 31.970215%)" offset="0.320312"/><stop stop-opacity="1" stop-color="rgb(0.810242%, 33.390808%, 32.148743%)" offset="0.324219"/><stop stop-opacity="1" stop-color="rgb(0.805664%, 33.595276%, 32.327271%)" offset="0.328125"/><stop stop-opacity="1" stop-color="rgb(0.801086%, 33.798218%, 32.505798%)" offset="0.332031"/><stop stop-opacity="1" stop-color="rgb(0.796509%, 34.00116%, 32.685852%)" offset="0.335938"/><stop stop-opacity="1" stop-color="rgb(0.791931%, 34.204102%, 32.86438%)" offset="0.339844"/><stop stop-opacity="1" stop-color="rgb(0.787354%, 34.408569%, 33.042908%)" offset="0.34375"/><stop stop-opacity="1" stop-color="rgb(0.78125%, 34.611511%, 33.221436%)" offset="0.347656"/><stop stop-opacity="1" stop-color="rgb(0.776672%, 34.815979%, 33.401489%)" offset="0.351563"/><stop stop-opacity="1" stop-color="rgb(0.772095%, 35.018921%, 33.580017%)" offset="0.355469"/><stop stop-opacity="1" stop-color="rgb(0.767517%, 35.223389%, 33.758545%)" offset="0.359375"/><stop stop-opacity="1" stop-color="rgb(0.762939%, 35.426331%, 33.937073%)" offset="0.363281"/><stop stop-opacity="1" stop-color="rgb(0.758362%, 35.629272%, 34.117126%)" offset="0.367188"/><stop stop-opacity="1" stop-color="rgb(0.753784%, 35.832214%, 34.295654%)" offset="0.371094"/><stop stop-opacity="1" stop-color="rgb(0.749207%, 36.036682%, 34.474182%)" offset="0.375"/><stop stop-opacity="1" stop-color="rgb(0.744629%, 36.239624%, 34.65271%)" offset="0.378906"/><stop stop-opacity="1" stop-color="rgb(0.740051%, 36.444092%, 34.832764%)" offset="0.382813"/><stop stop-opacity="1" stop-color="rgb(0.735474%, 36.647034%, 35.011292%)" offset="0.386719"/><stop stop-opacity="1" stop-color="rgb(0.730896%, 36.851501%, 35.189819%)" offset="0.390625"/><stop stop-opacity="1" stop-color="rgb(0.726318%, 37.054443%, 35.368347%)" offset="0.394531"/><stop stop-opacity="1" stop-color="rgb(0.721741%, 37.257385%, 35.548401%)" offset="0.398438"/><stop stop-opacity="1" stop-color="rgb(0.715637%, 37.460327%, 35.726929%)" offset="0.402344"/><stop stop-opacity="1" stop-color="rgb(0.71106%, 37.664795%, 35.905457%)" offset="0.40625"/><stop stop-opacity="1" stop-color="rgb(0.706482%, 37.867737%, 36.083984%)" offset="0.410156"/><stop stop-opacity="1" stop-color="rgb(0.701904%, 38.072205%, 36.264038%)" offset="0.414063"/><stop stop-opacity="1" stop-color="rgb(0.697327%, 38.275146%, 36.442566%)" offset="0.417969"/><stop stop-opacity="1" stop-color="rgb(0.692749%, 38.479614%, 36.621094%)" offset="0.421875"/><stop stop-opacity="1" stop-color="rgb(0.688171%, 38.682556%, 36.799622%)" offset="0.425781"/><stop stop-opacity="1" stop-color="rgb(0.683594%, 38.885498%, 36.979675%)" offset="0.429688"/><stop stop-opacity="1" stop-color="rgb(0.679016%, 39.08844%, 37.158203%)" offset="0.433594"/><stop stop-opacity="1" stop-color="rgb(0.674438%, 39.292908%, 37.336731%)" offset="0.4375"/><stop stop-opacity="1" stop-color="rgb(0.669861%, 39.49585%, 37.515259%)" offset="0.441406"/><stop stop-opacity="1" stop-color="rgb(0.665283%, 39.700317%, 37.693787%)" offset="0.445313"/><stop stop-opacity="1" stop-color="rgb(0.660706%, 39.903259%, 37.872314%)" offset="0.449219"/><stop stop-opacity="1" stop-color="rgb(0.656128%, 40.107727%, 38.052368%)" offset="0.453125"/><stop stop-opacity="1" stop-color="rgb(0.650024%, 40.310669%, 38.230896%)" offset="0.457031"/><stop stop-opacity="1" stop-color="rgb(0.645447%, 40.513611%, 38.409424%)" offset="0.460938"/><stop stop-opacity="1" stop-color="rgb(0.640869%, 40.716553%, 38.587952%)" offset="0.464844"/><stop stop-opacity="1" stop-color="rgb(0.636292%, 40.921021%, 38.768005%)" offset="0.46875"/><stop stop-opacity="1" stop-color="rgb(0.631714%, 41.123962%, 38.946533%)" offset="0.472656"/><stop stop-opacity="1" stop-color="rgb(0.627136%, 41.32843%, 39.125061%)" offset="0.476563"/><stop stop-opacity="1" stop-color="rgb(0.622559%, 41.531372%, 39.303589%)" offset="0.480469"/><stop stop-opacity="1" stop-color="rgb(0.617981%, 41.73584%, 39.483643%)" offset="0.484375"/><stop stop-opacity="1" stop-color="rgb(0.613403%, 41.938782%, 39.66217%)" offset="0.488281"/><stop stop-opacity="1" stop-color="rgb(0.608826%, 42.141724%, 39.840698%)" offset="0.492188"/><stop stop-opacity="1" stop-color="rgb(0.604248%, 42.344666%, 40.019226%)" offset="0.496094"/><stop stop-opacity="1" stop-color="rgb(0.59967%, 42.549133%, 40.19928%)" offset="0.5"/><stop stop-opacity="1" stop-color="rgb(0.595093%, 42.752075%, 40.377808%)" offset="0.503906"/><stop stop-opacity="1" stop-color="rgb(0.590515%, 42.956543%, 40.556335%)" offset="0.507812"/><stop stop-opacity="1" stop-color="rgb(0.584412%, 43.159485%, 40.734863%)" offset="0.511719"/><stop stop-opacity="1" stop-color="rgb(0.579834%, 43.363953%, 40.914917%)" offset="0.515625"/><stop stop-opacity="1" stop-color="rgb(0.575256%, 43.566895%, 41.093445%)" offset="0.519531"/><stop stop-opacity="1" stop-color="rgb(0.570679%, 43.769836%, 41.271973%)" offset="0.523437"/><stop stop-opacity="1" stop-color="rgb(0.566101%, 43.972778%, 41.4505%)" offset="0.527344"/><stop stop-opacity="1" stop-color="rgb(0.561523%, 44.177246%, 41.630554%)" offset="0.53125"/><stop stop-opacity="1" stop-color="rgb(0.556946%, 44.380188%, 41.809082%)" offset="0.535156"/><stop stop-opacity="1" stop-color="rgb(0.552368%, 44.584656%, 41.98761%)" offset="0.539063"/><stop stop-opacity="1" stop-color="rgb(0.547791%, 44.787598%, 42.166138%)" offset="0.542969"/><stop stop-opacity="1" stop-color="rgb(0.543213%, 44.992065%, 42.346191%)" offset="0.546875"/><stop stop-opacity="1" stop-color="rgb(0.538635%, 45.195007%, 42.524719%)" offset="0.550781"/><stop stop-opacity="1" stop-color="rgb(0.534058%, 45.397949%, 42.703247%)" offset="0.554688"/><stop stop-opacity="1" stop-color="rgb(0.52948%, 45.600891%, 42.881775%)" offset="0.558594"/><stop stop-opacity="1" stop-color="rgb(0.524902%, 45.805359%, 43.061829%)" offset="0.5625"/><stop stop-opacity="1" stop-color="rgb(0.518799%, 46.008301%, 43.240356%)" offset="0.566406"/><stop stop-opacity="1" stop-color="rgb(0.514221%, 46.212769%, 43.418884%)" offset="0.570312"/><stop stop-opacity="1" stop-color="rgb(0.509644%, 46.41571%, 43.597412%)" offset="0.574219"/><stop stop-opacity="1" stop-color="rgb(0.505066%, 46.620178%, 43.777466%)" offset="0.578125"/><stop stop-opacity="1" stop-color="rgb(0.500488%, 46.82312%, 43.955994%)" offset="0.582031"/><stop stop-opacity="1" stop-color="rgb(0.495911%, 47.026062%, 44.134521%)" offset="0.585938"/><stop stop-opacity="1" stop-color="rgb(0.491333%, 47.229004%, 44.313049%)" offset="0.589844"/><stop stop-opacity="1" stop-color="rgb(0.486755%, 47.433472%, 44.493103%)" offset="0.59375"/><stop stop-opacity="1" stop-color="rgb(0.482178%, 47.636414%, 44.671631%)" offset="0.597656"/><stop stop-opacity="1" stop-color="rgb(0.4776%, 47.840881%, 44.850159%)" offset="0.601562"/><stop stop-opacity="1" stop-color="rgb(0.473022%, 48.043823%, 45.028687%)" offset="0.605469"/><stop stop-opacity="1" stop-color="rgb(0.468445%, 48.248291%, 45.20874%)" offset="0.609375"/><stop stop-opacity="1" stop-color="rgb(0.463867%, 48.451233%, 45.387268%)" offset="0.613281"/><stop stop-opacity="1" stop-color="rgb(0.45929%, 48.654175%, 45.565796%)" offset="0.617187"/><stop stop-opacity="1" stop-color="rgb(0.453186%, 48.857117%, 45.744324%)" offset="0.621094"/><stop stop-opacity="1" stop-color="rgb(0.448608%, 49.061584%, 45.924377%)" offset="0.625"/><stop stop-opacity="1" stop-color="rgb(0.444031%, 49.264526%, 46.102905%)" offset="0.628906"/><stop stop-opacity="1" stop-color="rgb(0.439453%, 49.468994%, 46.281433%)" offset="0.632813"/><stop stop-opacity="1" stop-color="rgb(0.434875%, 49.671936%, 46.459961%)" offset="0.636719"/><stop stop-opacity="1" stop-color="rgb(0.430298%, 49.876404%, 46.640015%)" offset="0.640625"/><stop stop-opacity="1" stop-color="rgb(0.42572%, 50.079346%, 46.818542%)" offset="0.644531"/><stop stop-opacity="1" stop-color="rgb(0.421143%, 50.282288%, 46.99707%)" offset="0.648438"/><stop stop-opacity="1" stop-color="rgb(0.416565%, 50.485229%, 47.175598%)" offset="0.652344"/><stop stop-opacity="1" stop-color="rgb(0.411987%, 50.689697%, 47.355652%)" offset="0.65625"/><stop stop-opacity="1" stop-color="rgb(0.40741%, 50.892639%, 47.53418%)" offset="0.660156"/><stop stop-opacity="1" stop-color="rgb(0.402832%, 51.097107%, 47.712708%)" offset="0.664062"/><stop stop-opacity="1" stop-color="rgb(0.398254%, 51.300049%, 47.891235%)" offset="0.667969"/><stop stop-opacity="1" stop-color="rgb(0.393677%, 51.504517%, 48.071289%)" offset="0.671875"/><stop stop-opacity="1" stop-color="rgb(0.387573%, 51.707458%, 48.249817%)" offset="0.675781"/><stop stop-opacity="1" stop-color="rgb(0.382996%, 51.9104%, 48.428345%)" offset="0.679688"/><stop stop-opacity="1" stop-color="rgb(0.378418%, 52.113342%, 48.606873%)" offset="0.683594"/><stop stop-opacity="1" stop-color="rgb(0.37384%, 52.31781%, 48.786926%)" offset="0.6875"/><stop stop-opacity="1" stop-color="rgb(0.369263%, 52.520752%, 48.965454%)" offset="0.691406"/><stop stop-opacity="1" stop-color="rgb(0.364685%, 52.72522%, 49.143982%)" offset="0.695312"/><stop stop-opacity="1" stop-color="rgb(0.360107%, 52.928162%, 49.32251%)" offset="0.699219"/><stop stop-opacity="1" stop-color="rgb(0.35553%, 53.132629%, 49.502563%)" offset="0.703125"/><stop stop-opacity="1" stop-color="rgb(0.350952%, 53.335571%, 49.681091%)" offset="0.707031"/><stop stop-opacity="1" stop-color="rgb(0.346375%, 53.538513%, 49.859619%)" offset="0.710937"/><stop stop-opacity="1" stop-color="rgb(0.341797%, 53.741455%, 50.038147%)" offset="0.714844"/><stop stop-opacity="1" stop-color="rgb(0.337219%, 53.945923%, 50.218201%)" offset="0.71875"/><stop stop-opacity="1" stop-color="rgb(0.332642%, 54.148865%, 50.396729%)" offset="0.722656"/><stop stop-opacity="1" stop-color="rgb(0.328064%, 54.353333%, 50.575256%)" offset="0.726563"/><stop stop-opacity="1" stop-color="rgb(0.32196%, 54.556274%, 50.753784%)" offset="0.730469"/><stop stop-opacity="1" stop-color="rgb(0.317383%, 54.760742%, 50.933838%)" offset="0.734375"/><stop stop-opacity="1" stop-color="rgb(0.312805%, 54.963684%, 51.112366%)" offset="0.738281"/><stop stop-opacity="1" stop-color="rgb(0.308228%, 55.166626%, 51.290894%)" offset="0.742188"/><stop stop-opacity="1" stop-color="rgb(0.30365%, 55.369568%, 51.469421%)" offset="0.746094"/><stop stop-opacity="1" stop-color="rgb(0.299072%, 55.574036%, 51.649475%)" offset="0.75"/><stop stop-opacity="1" stop-color="rgb(0.294495%, 55.776978%, 51.828003%)" offset="0.753906"/><stop stop-opacity="1" stop-color="rgb(0.289917%, 55.981445%, 52.006531%)" offset="0.757812"/><stop stop-opacity="1" stop-color="rgb(0.285339%, 56.184387%, 52.185059%)" offset="0.761719"/><stop stop-opacity="1" stop-color="rgb(0.280762%, 56.388855%, 52.365112%)" offset="0.765625"/><stop stop-opacity="1" stop-color="rgb(0.276184%, 56.591797%, 52.54364%)" offset="0.769531"/><stop stop-opacity="1" stop-color="rgb(0.271606%, 56.794739%, 52.722168%)" offset="0.773438"/><stop stop-opacity="1" stop-color="rgb(0.267029%, 56.997681%, 52.900696%)" offset="0.777344"/><stop stop-opacity="1" stop-color="rgb(0.262451%, 57.202148%, 53.08075%)" offset="0.78125"/><stop stop-opacity="1" stop-color="rgb(0.256348%, 57.40509%, 53.259277%)" offset="0.785156"/><stop stop-opacity="1" stop-color="rgb(0.25177%, 57.609558%, 53.437805%)" offset="0.789062"/><stop stop-opacity="1" stop-color="rgb(0.247192%, 57.8125%, 53.616333%)" offset="0.792969"/><stop stop-opacity="1" stop-color="rgb(0.242615%, 58.016968%, 53.796387%)" offset="0.796875"/><stop stop-opacity="1" stop-color="rgb(0.238037%, 58.21991%, 53.974915%)" offset="0.800781"/><stop stop-opacity="1" stop-color="rgb(0.233459%, 58.422852%, 54.153442%)" offset="0.804687"/><stop stop-opacity="1" stop-color="rgb(0.228882%, 58.625793%, 54.33197%)" offset="0.808594"/><stop stop-opacity="1" stop-color="rgb(0.224304%, 58.830261%, 54.512024%)" offset="0.8125"/><stop stop-opacity="1" stop-color="rgb(0.219727%, 59.033203%, 54.690552%)" offset="0.816406"/><stop stop-opacity="1" stop-color="rgb(0.215149%, 59.237671%, 54.86908%)" offset="0.820313"/><stop stop-opacity="1" stop-color="rgb(0.210571%, 59.440613%, 55.047607%)" offset="0.824219"/><stop stop-opacity="1" stop-color="rgb(0.205994%, 59.645081%, 55.227661%)" offset="0.828125"/><stop stop-opacity="1" stop-color="rgb(0.201416%, 59.848022%, 55.406189%)" offset="0.832031"/><stop stop-opacity="1" stop-color="rgb(0.196838%, 60.050964%, 55.584717%)" offset="0.835938"/><stop stop-opacity="1" stop-color="rgb(0.190735%, 60.253906%, 55.763245%)" offset="0.839844"/><stop stop-opacity="1" stop-color="rgb(0.186157%, 60.458374%, 55.943298%)" offset="0.84375"/><stop stop-opacity="1" stop-color="rgb(0.18158%, 60.661316%, 56.121826%)" offset="0.847656"/><stop stop-opacity="1" stop-color="rgb(0.177002%, 60.865784%, 56.300354%)" offset="0.851562"/><stop stop-opacity="1" stop-color="rgb(0.172424%, 61.068726%, 56.478882%)" offset="0.855469"/><stop stop-opacity="1" stop-color="rgb(0.167847%, 61.273193%, 56.658936%)" offset="0.859375"/><stop stop-opacity="1" stop-color="rgb(0.163269%, 61.476135%, 56.837463%)" offset="0.863281"/><stop stop-opacity="1" stop-color="rgb(0.158691%, 61.679077%, 57.015991%)" offset="0.867188"/><stop stop-opacity="1" stop-color="rgb(0.154114%, 61.882019%, 57.194519%)" offset="0.871094"/><stop stop-opacity="1" stop-color="rgb(0.149536%, 62.086487%, 57.374573%)" offset="0.875"/><stop stop-opacity="1" stop-color="rgb(0.144958%, 62.289429%, 57.553101%)" offset="0.878906"/><stop stop-opacity="1" stop-color="rgb(0.140381%, 62.493896%, 57.731628%)" offset="0.882812"/><stop stop-opacity="1" stop-color="rgb(0.135803%, 62.696838%, 57.910156%)" offset="0.886719"/><stop stop-opacity="1" stop-color="rgb(0.131226%, 62.901306%, 58.09021%)" offset="0.890625"/><stop stop-opacity="1" stop-color="rgb(0.125122%, 63.104248%, 58.268738%)" offset="0.894531"/><stop stop-opacity="1" stop-color="rgb(0.120544%, 63.30719%, 58.447266%)" offset="0.898437"/><stop stop-opacity="1" stop-color="rgb(0.115967%, 63.510132%, 58.625793%)" offset="0.902344"/><stop stop-opacity="1" stop-color="rgb(0.111389%, 63.7146%, 58.805847%)" offset="0.90625"/><stop stop-opacity="1" stop-color="rgb(0.106812%, 63.917542%, 58.984375%)" offset="0.910156"/><stop stop-opacity="1" stop-color="rgb(0.102234%, 64.122009%, 59.162903%)" offset="0.914063"/><stop stop-opacity="1" stop-color="rgb(0.0976562%, 64.324951%, 59.341431%)" offset="0.917969"/><stop stop-opacity="1" stop-color="rgb(0.0930786%, 64.529419%, 59.521484%)" offset="0.921875"/><stop stop-opacity="1" stop-color="rgb(0.088501%, 64.732361%, 59.700012%)" offset="0.925781"/><stop stop-opacity="1" stop-color="rgb(0.0839233%, 64.935303%, 59.87854%)" offset="0.929688"/><stop stop-opacity="1" stop-color="rgb(0.0793457%, 65.138245%, 60.057068%)" offset="0.933594"/><stop stop-opacity="1" stop-color="rgb(0.0747681%, 65.342712%, 60.237122%)" offset="0.9375"/><stop stop-opacity="1" stop-color="rgb(0.0701904%, 65.545654%, 60.415649%)" offset="0.941406"/><stop stop-opacity="1" stop-color="rgb(0.0656128%, 65.750122%, 60.594177%)" offset="0.945312"/><stop stop-opacity="1" stop-color="rgb(0.0595093%, 65.953064%, 60.772705%)" offset="0.949219"/><stop stop-opacity="1" stop-color="rgb(0.0549316%, 66.157532%, 60.952759%)" offset="0.953125"/><stop stop-opacity="1" stop-color="rgb(0.050354%, 66.360474%, 61.131287%)" offset="0.957031"/><stop stop-opacity="1" stop-color="rgb(0.0457764%, 66.563416%, 61.309814%)" offset="0.960938"/><stop stop-opacity="1" stop-color="rgb(0.0411987%, 66.766357%, 61.488342%)" offset="0.964844"/><stop stop-opacity="1" stop-color="rgb(0.0366211%, 66.970825%, 61.668396%)" offset="0.96875"/><stop stop-opacity="1" stop-color="rgb(0.0320435%, 67.173767%, 61.846924%)" offset="0.972656"/><stop stop-opacity="1" stop-color="rgb(0.0274658%, 67.378235%, 62.025452%)" offset="0.976562"/><stop stop-opacity="1" stop-color="rgb(0.0228882%, 67.581177%, 62.203979%)" offset="0.980469"/><stop stop-opacity="1" stop-color="rgb(0.0183105%, 67.785645%, 62.384033%)" offset="0.984375"/><stop stop-opacity="1" stop-color="rgb(0.0137329%, 67.988586%, 62.562561%)" offset="0.988281"/><stop stop-opacity="1" stop-color="rgb(0.00915527%, 68.191528%, 62.741089%)" offset="0.992187"/><stop stop-opacity="1" stop-color="rgb(0.00457764%, 68.39447%, 62.919617%)" offset="0.996094"/><stop stop-opacity="1" stop-color="rgb(0%, 68.598938%, 63.09967%)" offset="1"/></linearGradient><clipPath id="4164f39340"><path d="M 82.425781 82.425781 L 292.425781 82.425781 L 292.425781 292.425781 L 82.425781 292.425781 Z M 82.425781 82.425781 " clip-rule="nonzero"/></clipPath></defs><g clip-path="url(#b71c4c431f)"><g clip-path="url(#9cb8a67d91)"><path fill="url(#59f0889fca)" d="M 23.578125 23.578125 L 23.578125 351.421875 L 351.421875 351.421875 L 351.421875 23.578125 Z M 23.578125 23.578125 " fill-rule="nonzero"/></g></g><g clip-path="url(#4164f39340)"><path fill="#ffffff" d="M 187.496094 82.425781 C 185.777344 82.425781 184.058594 82.46875 182.339844 82.550781 C 180.621094 82.636719 178.90625 82.761719 177.195312 82.929688 C 175.484375 83.097656 173.777344 83.308594 172.078125 83.5625 C 170.378906 83.8125 168.683594 84.109375 166.996094 84.445312 C 165.308594 84.777344 163.632812 85.15625 161.964844 85.574219 C 160.296875 85.992188 158.640625 86.449219 156.996094 86.949219 C 155.347656 87.449219 153.71875 87.988281 152.097656 88.566406 C 150.480469 89.144531 148.875 89.765625 147.285156 90.421875 C 145.699219 91.082031 144.125 91.777344 142.570312 92.511719 C 141.015625 93.246094 139.480469 94.019531 137.964844 94.832031 C 136.449219 95.640625 134.953125 96.488281 133.476562 97.375 C 132.003906 98.257812 130.550781 99.175781 129.121094 100.132812 C 127.691406 101.085938 126.285156 102.078125 124.90625 103.101562 C 123.523438 104.125 122.167969 105.183594 120.839844 106.273438 C 119.511719 107.367188 118.207031 108.488281 116.933594 109.644531 C 115.660156 110.796875 114.414062 111.984375 113.199219 113.199219 C 111.984375 114.414062 110.796875 115.660156 109.644531 116.933594 C 108.488281 118.207031 107.367188 119.511719 106.273438 120.839844 C 105.183594 122.167969 104.125 123.523438 103.101562 124.90625 C 102.078125 126.285156 101.085938 127.691406 100.132812 129.121094 C 99.175781 130.550781 98.257812 132.003906 97.375 133.476562 C 96.488281 134.953125 95.640625 136.449219 94.832031 137.964844 C 94.019531 139.480469 93.246094 141.015625 92.511719 142.570312 C 91.777344 144.125 91.082031 145.699219 90.421875 147.285156 C 89.765625 148.875 89.144531 150.480469 88.566406 152.097656 C 87.988281 153.71875 87.449219 155.347656 86.949219 156.996094 C 86.449219 158.640625 85.992188 160.296875 85.574219 161.964844 C 85.15625 163.632812 84.777344 165.308594 84.445312 166.996094 C 84.109375 168.683594 83.8125 170.378906 83.5625 172.078125 C 83.308594 173.777344 83.097656 175.484375 82.929688 177.195312 C 82.761719 178.90625 82.636719 180.621094 82.550781 182.339844 C 82.46875 184.058594 82.425781 185.777344 82.425781 187.496094 C 82.425781 189.214844 82.46875 190.933594 82.550781 192.652344 C 82.636719 194.367188 82.761719 196.082031 82.929688 197.792969 C 83.097656 199.503906 83.308594 201.210938 83.5625 202.910156 C 83.8125 204.613281 84.109375 206.308594 84.445312 207.992188 C 84.777344 209.679688 85.15625 211.355469 85.574219 213.023438 C 85.992188 214.691406 86.449219 216.351562 86.949219 217.996094 C 87.449219 219.640625 87.988281 221.273438 88.566406 222.890625 C 89.144531 224.511719 89.765625 226.113281 90.421875 227.703125 C 91.082031 229.292969 91.777344 230.863281 92.511719 232.417969 C 93.246094 233.972656 94.019531 235.507812 94.832031 237.023438 C 95.640625 238.542969 96.488281 240.035156 97.375 241.511719 C 98.257812 242.988281 99.175781 244.4375 100.132812 245.867188 C 101.085938 247.296875 102.078125 248.703125 103.101562 250.085938 C 104.125 251.464844 105.183594 252.820312 106.273438 254.152344 C 107.367188 255.480469 108.488281 256.78125 109.644531 258.054688 C 110.796875 259.332031 111.984375 260.574219 113.199219 261.789062 C 114.414062 263.007812 115.660156 264.191406 116.933594 265.347656 C 118.207031 266.5 119.511719 267.625 120.839844 268.714844 C 122.167969 269.804688 123.523438 270.863281 124.90625 271.886719 C 126.285156 272.914062 127.691406 273.902344 129.121094 274.859375 C 130.550781 275.8125 132.003906 276.734375 133.476562 277.617188 C 134.953125 278.5 136.449219 279.347656 137.964844 280.160156 C 139.480469 280.96875 141.015625 281.742188 142.570312 282.476562 C 144.125 283.210938 145.699219 283.910156 147.285156 284.566406 C 148.875 285.226562 150.480469 285.84375 152.097656 286.421875 C 153.71875 287.003906 155.347656 287.542969 156.996094 288.042969 C 158.640625 288.539062 160.296875 289 161.964844 289.417969 C 163.632812 289.835938 165.308594 290.210938 166.996094 290.546875 C 168.683594 290.882812 170.378906 291.175781 172.078125 291.429688 C 173.777344 291.679688 175.484375 291.890625 177.195312 292.058594 C 178.90625 292.226562 180.621094 292.355469 182.339844 292.4375 C 184.058594 292.523438 185.777344 292.566406 187.496094 292.566406 C 189.214844 292.566406 190.933594 292.523438 192.652344 292.4375 C 194.367188 292.355469 196.082031 292.226562 197.792969 292.058594 C 199.503906 291.890625 201.210938 291.679688 202.910156 291.429688 C 204.613281 291.175781 206.308594 290.882812 207.992188 290.546875 C 209.679688 290.210938 211.355469 289.835938 213.023438 289.417969 C 214.691406 289 216.351562 288.539062 217.996094 288.042969 C 219.640625 287.542969 221.273438 287.003906 222.890625 286.421875 C 224.511719 285.84375 226.113281 285.226562 227.703125 284.566406 C 229.292969 283.910156 230.863281 283.210938 232.417969 282.476562 C 233.972656 281.742188 235.507812 280.96875 237.023438 280.160156 C 238.542969 279.347656 240.035156 278.5 241.511719 277.617188 C 242.988281 276.734375 244.4375 275.8125 245.867188 274.859375 C 247.296875 273.902344 248.703125 272.914062 250.085938 271.886719 C 251.464844 270.863281 252.820312 269.804688 254.152344 268.714844 C 255.480469 267.625 256.78125 266.5 258.054688 265.347656 C 259.332031 264.191406 260.574219 263.007812 261.789062 261.789062 C 263.007812 260.574219 264.191406 259.332031 265.347656 258.054688 C 266.5 256.78125 267.625 255.480469 268.714844 254.152344 C 269.804688 252.820312 270.863281 251.464844 271.886719 250.085938 C 272.914062 248.703125 273.902344 247.296875 274.859375 245.867188 C 275.8125 244.4375 276.734375 242.988281 277.617188 241.511719 C 278.5 240.035156 279.347656 238.542969 280.160156 237.023438 C 280.96875 235.507812 281.742188 233.972656 282.476562 232.417969 C 283.210938 230.863281 283.910156 229.292969 284.566406 227.703125 C 285.226562 226.113281 285.84375 224.511719 286.421875 222.890625 C 287.003906 221.273438 287.542969 219.640625 288.042969 217.996094 C 288.539062 216.351562 289 214.691406 289.417969 213.023438 C 289.835938 211.355469 290.210938 209.679688 290.546875 207.992188 C 290.882812 206.308594 291.175781 204.613281 291.429688 202.910156 C 291.679688 201.210938 291.890625 199.503906 292.058594 197.792969 C 292.226562 196.082031 292.355469 194.367188 292.4375 192.652344 C 292.523438 190.933594 292.566406 189.214844 292.566406 187.496094 C 292.5625 185.777344 292.519531 184.058594 292.433594 182.339844 C 292.347656 180.625 292.21875 178.910156 292.046875 177.199219 C 291.878906 175.488281 291.664062 173.785156 291.410156 172.085938 C 291.15625 170.382812 290.863281 168.691406 290.527344 167.003906 C 290.1875 165.320312 289.8125 163.644531 289.390625 161.976562 C 288.972656 160.308594 288.511719 158.652344 288.011719 157.007812 C 287.511719 155.363281 286.972656 153.734375 286.394531 152.113281 C 285.8125 150.496094 285.191406 148.894531 284.535156 147.304688 C 283.875 145.71875 283.179688 144.148438 282.441406 142.59375 C 281.707031 141.039062 280.933594 139.503906 280.121094 137.988281 C 279.3125 136.472656 278.464844 134.980469 277.578125 133.503906 C 276.695312 132.03125 275.773438 130.578125 274.820312 129.152344 C 273.863281 127.722656 272.875 126.316406 271.851562 124.9375 C 270.824219 123.554688 269.769531 122.203125 268.675781 120.871094 C 267.585938 119.542969 266.464844 118.242188 265.308594 116.96875 C 264.15625 115.695312 262.96875 114.449219 261.753906 113.234375 C 260.539062 112.019531 259.292969 110.835938 258.019531 109.679688 C 256.746094 108.527344 255.445312 107.402344 254.117188 106.3125 C 252.789062 105.222656 251.433594 104.164062 250.054688 103.140625 C 248.671875 102.117188 247.269531 101.125 245.839844 100.171875 C 244.410156 99.214844 242.960938 98.296875 241.484375 97.410156 C 240.011719 96.527344 238.515625 95.679688 237 94.867188 C 235.484375 94.058594 233.949219 93.285156 232.398438 92.546875 C 230.84375 91.8125 229.273438 91.113281 227.683594 90.457031 C 226.097656 89.796875 224.492188 89.175781 222.875 88.597656 C 221.257812 88.015625 219.625 87.476562 217.980469 86.976562 C 216.335938 86.476562 214.679688 86.015625 213.015625 85.597656 C 211.347656 85.179688 209.671875 84.800781 207.984375 84.464844 C 206.300781 84.128906 204.605469 83.832031 202.90625 83.578125 C 201.207031 83.324219 199.5 83.113281 197.789062 82.941406 C 196.078125 82.773438 194.367188 82.644531 192.648438 82.558594 C 190.933594 82.472656 189.214844 82.425781 187.496094 82.425781 Z M 222.902344 222.902344 C 222.460938 223.347656 221.976562 223.742188 221.457031 224.089844 C 220.933594 224.441406 220.382812 224.734375 219.804688 224.972656 C 219.226562 225.214844 218.628906 225.394531 218.015625 225.515625 C 217.398438 225.640625 216.777344 225.699219 216.152344 225.699219 C 215.523438 225.699219 214.902344 225.640625 214.289062 225.515625 C 213.671875 225.394531 213.074219 225.214844 212.496094 224.972656 C 211.917969 224.734375 211.367188 224.441406 210.84375 224.089844 C 210.324219 223.742188 209.839844 223.347656 209.398438 222.902344 L 180.742188 194.25 C 179.847656 193.351562 179.15625 192.320312 178.671875 191.148438 C 178.1875 189.980469 177.945312 188.761719 177.941406 187.496094 L 177.941406 130.183594 C 177.941406 129.558594 178.003906 128.9375 178.125 128.320312 C 178.25 127.707031 178.429688 127.109375 178.671875 126.527344 C 178.910156 125.949219 179.203125 125.398438 179.554688 124.878906 C 179.902344 124.355469 180.296875 123.875 180.742188 123.429688 C 181.183594 122.988281 181.667969 122.589844 182.1875 122.242188 C 182.710938 121.894531 183.261719 121.597656 183.839844 121.359375 C 184.417969 121.121094 185.015625 120.9375 185.632812 120.816406 C 186.246094 120.695312 186.867188 120.632812 187.496094 120.632812 C 188.121094 120.632812 188.742188 120.695312 189.359375 120.816406 C 189.972656 120.9375 190.570312 121.121094 191.152344 121.359375 C 191.730469 121.597656 192.28125 121.894531 192.800781 122.242188 C 193.324219 122.589844 193.804688 122.988281 194.25 123.429688 C 194.691406 123.875 195.089844 124.355469 195.4375 124.878906 C 195.785156 125.398438 196.078125 125.949219 196.320312 126.527344 C 196.558594 127.109375 196.742188 127.707031 196.863281 128.320312 C 196.984375 128.9375 197.046875 129.558594 197.046875 130.183594 L 197.046875 183.539062 L 222.902344 209.398438 C 223.347656 209.839844 223.742188 210.324219 224.089844 210.84375 C 224.441406 211.367188 224.734375 211.917969 224.972656 212.496094 C 225.214844 213.074219 225.394531 213.671875 225.515625 214.289062 C 225.640625 214.902344 225.699219 215.523438 225.699219 216.152344 C 225.699219 216.777344 225.640625 217.398438 225.515625 218.015625 C 225.394531 218.628906 225.214844 219.226562 224.972656 219.804688 C 224.734375 220.382812 224.441406 220.933594 224.089844 221.457031 C 223.742188 221.976562 223.347656 222.460938 222.902344 222.902344 Z M 222.902344 222.902344 " fill-opacity="1" fill-rule="nonzero"/></g></svg>