<svg xmlns="http://www.w3.org/2000/svg" xmlns:xlink="http://www.w3.org/1999/xlink" width="500" zoomAndPan="magnify" viewBox="0 0 375 374.999991" height="500" preserveAspectRatio="xMidYMid meet" version="1.0"><defs><clipPath id="01e739b8ff"><path d="M 23.578125 23.578125 L 351.421875 23.578125 L 351.421875 351.421875 L 23.578125 351.421875 Z M 23.578125 23.578125 " clip-rule="nonzero"/></clipPath><clipPath id="e4372d8df7"><path d="M 187.5 23.578125 C 96.96875 23.578125 23.578125 96.96875 23.578125 187.5 C 23.578125 278.03125 96.96875 351.421875 187.5 351.421875 C 278.03125 351.421875 351.421875 278.03125 351.421875 187.5 C 351.421875 96.96875 278.03125 23.578125 187.5 23.578125 Z M 187.5 23.578125 " clip-rule="nonzero"/></clipPath><linearGradient x1="128" gradientTransform="matrix(1.280629, 0, 0, 1.280629, 23.57955, 23.579529)" y1="0.000000232323" x2="128" gradientUnits="userSpaceOnUse" y2="255.999986" id="b1a99169b7"><stop stop-opacity="1" stop-color="rgb(1.199341%, 16.499329%, 17.298889%)" offset="0"/><stop stop-opacity="1" stop-color="rgb(1.194763%, 16.702271%, 17.477417%)" offset="0.00390625"/><stop stop-opacity="1" stop-color="rgb(1.190186%, 16.906738%, 17.657471%)" offset="0.0078125"/><stop stop-opacity="1" stop-color="rgb(1.185608%, 17.10968%, 17.835999%)" offset="0.0117187"/><stop stop-opacity="1" stop-color="rgb(1.18103%, 17.312622%, 18.014526%)" offset="0.015625"/><stop stop-opacity="1" stop-color="rgb(1.176453%, 17.515564%, 18.193054%)" offset="0.0195312"/><stop stop-opacity="1" stop-color="rgb(1.171875%, 17.720032%, 18.373108%)" offset="0.0234375"/><stop stop-opacity="1" stop-color="rgb(1.165771%, 17.922974%, 18.551636%)" offset="0.0273438"/><stop stop-opacity="1" stop-color="rgb(1.161194%, 18.127441%, 18.730164%)" offset="0.03125"/><stop stop-opacity="1" stop-color="rgb(1.156616%, 18.330383%, 18.908691%)" offset="0.0351562"/><stop stop-opacity="1" stop-color="rgb(1.152039%, 18.534851%, 19.088745%)" offset="0.0390625"/><stop stop-opacity="1" stop-color="rgb(1.147461%, 18.737793%, 19.267273%)" offset="0.0429688"/><stop stop-opacity="1" stop-color="rgb(1.142883%, 18.940735%, 19.445801%)" offset="0.046875"/><stop stop-opacity="1" stop-color="rgb(1.138306%, 19.143677%, 19.624329%)" offset="0.0507813"/><stop stop-opacity="1" stop-color="rgb(1.133728%, 19.348145%, 19.804382%)" offset="0.0546875"/><stop stop-opacity="1" stop-color="rgb(1.12915%, 19.551086%, 19.98291%)" offset="0.0585938"/><stop stop-opacity="1" stop-color="rgb(1.124573%, 19.755554%, 20.161438%)" offset="0.0625"/><stop stop-opacity="1" stop-color="rgb(1.119995%, 19.958496%, 20.339966%)" offset="0.0664062"/><stop stop-opacity="1" stop-color="rgb(1.115417%, 20.162964%, 20.52002%)" offset="0.0703125"/><stop stop-opacity="1" stop-color="rgb(1.109314%, 20.365906%, 20.698547%)" offset="0.0742188"/><stop stop-opacity="1" stop-color="rgb(1.104736%, 20.568848%, 20.877075%)" offset="0.078125"/><stop stop-opacity="1" stop-color="rgb(1.100159%, 20.77179%, 21.055603%)" offset="0.0820312"/><stop stop-opacity="1" stop-color="rgb(1.095581%, 20.976257%, 21.235657%)" offset="0.0859375"/><stop stop-opacity="1" stop-color="rgb(1.091003%, 21.179199%, 21.414185%)" offset="0.0898438"/><stop stop-opacity="1" stop-color="rgb(1.086426%, 21.383667%, 21.592712%)" offset="0.09375"/><stop stop-opacity="1" stop-color="rgb(1.081848%, 21.586609%, 21.77124%)" offset="0.0976562"/><stop stop-opacity="1" stop-color="rgb(1.077271%, 21.791077%, 21.951294%)" offset="0.101562"/><stop stop-opacity="1" stop-color="rgb(1.072693%, 21.994019%, 22.129822%)" offset="0.105469"/><stop stop-opacity="1" stop-color="rgb(1.068115%, 22.19696%, 22.30835%)" offset="0.109375"/><stop stop-opacity="1" stop-color="rgb(1.063538%, 22.399902%, 22.486877%)" offset="0.113281"/><stop stop-opacity="1" stop-color="rgb(1.05896%, 22.60437%, 22.666931%)" offset="0.117188"/><stop stop-opacity="1" stop-color="rgb(1.054382%, 22.807312%, 22.845459%)" offset="0.121094"/><stop stop-opacity="1" stop-color="rgb(1.049805%, 23.01178%, 23.023987%)" offset="0.125"/><stop stop-opacity="1" stop-color="rgb(1.043701%, 23.214722%, 23.202515%)" offset="0.128906"/><stop stop-opacity="1" stop-color="rgb(1.039124%, 23.419189%, 23.382568%)" offset="0.132812"/><stop stop-opacity="1" stop-color="rgb(1.034546%, 23.622131%, 23.561096%)" offset="0.136719"/><stop stop-opacity="1" stop-color="rgb(1.029968%, 23.825073%, 23.739624%)" offset="0.140625"/><stop stop-opacity="1" stop-color="rgb(1.025391%, 24.028015%, 23.918152%)" offset="0.144531"/><stop stop-opacity="1" stop-color="rgb(1.020813%, 24.232483%, 24.098206%)" offset="0.148438"/><stop stop-opacity="1" stop-color="rgb(1.016235%, 24.435425%, 24.276733%)" offset="0.152344"/><stop stop-opacity="1" stop-color="rgb(1.011658%, 24.639893%, 24.455261%)" offset="0.15625"/><stop stop-opacity="1" stop-color="rgb(1.00708%, 24.842834%, 24.633789%)" offset="0.160156"/><stop stop-opacity="1" stop-color="rgb(1.002502%, 25.047302%, 24.813843%)" offset="0.164063"/><stop stop-opacity="1" stop-color="rgb(0.997925%, 25.250244%, 24.992371%)" offset="0.167969"/><stop stop-opacity="1" stop-color="rgb(0.993347%, 25.453186%, 25.170898%)" offset="0.171875"/><stop stop-opacity="1" stop-color="rgb(0.98877%, 25.656128%, 25.349426%)" offset="0.175781"/><stop stop-opacity="1" stop-color="rgb(0.984192%, 25.860596%, 25.52948%)" offset="0.179688"/><stop stop-opacity="1" stop-color="rgb(0.978088%, 26.063538%, 25.708008%)" offset="0.183594"/><stop stop-opacity="1" stop-color="rgb(0.973511%, 26.268005%, 25.886536%)" offset="0.1875"/><stop stop-opacity="1" stop-color="rgb(0.968933%, 26.470947%, 26.065063%)" offset="0.191406"/><stop stop-opacity="1" stop-color="rgb(0.964355%, 26.675415%, 26.245117%)" offset="0.195312"/><stop stop-opacity="1" stop-color="rgb(0.959778%, 26.878357%, 26.423645%)" offset="0.199219"/><stop stop-opacity="1" stop-color="rgb(0.9552%, 27.081299%, 26.602173%)" offset="0.203125"/><stop stop-opacity="1" stop-color="rgb(0.950623%, 27.284241%, 26.780701%)" offset="0.207031"/><stop stop-opacity="1" stop-color="rgb(0.946045%, 27.488708%, 26.960754%)" offset="0.210938"/><stop stop-opacity="1" stop-color="rgb(0.941467%, 27.69165%, 27.139282%)" offset="0.214844"/><stop stop-opacity="1" stop-color="rgb(0.93689%, 27.896118%, 27.31781%)" offset="0.21875"/><stop stop-opacity="1" stop-color="rgb(0.932312%, 28.09906%, 27.496338%)" offset="0.222656"/><stop stop-opacity="1" stop-color="rgb(0.927734%, 28.303528%, 27.676392%)" offset="0.226563"/><stop stop-opacity="1" stop-color="rgb(0.923157%, 28.50647%, 27.854919%)" offset="0.230469"/><stop stop-opacity="1" stop-color="rgb(0.918579%, 28.709412%, 28.033447%)" offset="0.234375"/><stop stop-opacity="1" stop-color="rgb(0.912476%, 28.912354%, 28.211975%)" offset="0.238281"/><stop stop-opacity="1" stop-color="rgb(0.907898%, 29.116821%, 28.392029%)" offset="0.242188"/><stop stop-opacity="1" stop-color="rgb(0.90332%, 29.319763%, 28.570557%)" offset="0.246094"/><stop stop-opacity="1" stop-color="rgb(0.898743%, 29.524231%, 28.749084%)" offset="0.25"/><stop stop-opacity="1" stop-color="rgb(0.894165%, 29.727173%, 28.927612%)" offset="0.253906"/><stop stop-opacity="1" stop-color="rgb(0.889587%, 29.931641%, 29.107666%)" offset="0.257812"/><stop stop-opacity="1" stop-color="rgb(0.88501%, 30.134583%, 29.286194%)" offset="0.261719"/><stop stop-opacity="1" stop-color="rgb(0.880432%, 30.33905%, 29.464722%)" offset="0.265625"/><stop stop-opacity="1" stop-color="rgb(0.875854%, 30.541992%, 29.64325%)" offset="0.269531"/><stop stop-opacity="1" stop-color="rgb(0.871277%, 30.744934%, 29.823303%)" offset="0.273438"/><stop stop-opacity="1" stop-color="rgb(0.866699%, 30.947876%, 30.001831%)" offset="0.277344"/><stop stop-opacity="1" stop-color="rgb(0.862122%, 31.152344%, 30.180359%)" offset="0.28125"/><stop stop-opacity="1" stop-color="rgb(0.857544%, 31.355286%, 30.358887%)" offset="0.285156"/><stop stop-opacity="1" stop-color="rgb(0.852966%, 31.559753%, 30.53894%)" offset="0.289062"/><stop stop-opacity="1" stop-color="rgb(0.846863%, 31.762695%, 30.717468%)" offset="0.292969"/><stop stop-opacity="1" stop-color="rgb(0.842285%, 31.967163%, 30.895996%)" offset="0.296875"/><stop stop-opacity="1" stop-color="rgb(0.837708%, 32.170105%, 31.074524%)" offset="0.300781"/><stop stop-opacity="1" stop-color="rgb(0.83313%, 32.373047%, 31.254578%)" offset="0.304688"/><stop stop-opacity="1" stop-color="rgb(0.828552%, 32.575989%, 31.433105%)" offset="0.308594"/><stop stop-opacity="1" stop-color="rgb(0.823975%, 32.780457%, 31.611633%)" offset="0.3125"/><stop stop-opacity="1" stop-color="rgb(0.819397%, 32.983398%, 31.790161%)" offset="0.316406"/><stop stop-opacity="1" stop-color="rgb(0.814819%, 33.187866%, 31.970215%)" offset="0.320313"/><stop stop-opacity="1" stop-color="rgb(0.810242%, 33.390808%, 32.148743%)" offset="0.324219"/><stop stop-opacity="1" stop-color="rgb(0.805664%, 33.595276%, 32.327271%)" offset="0.328125"/><stop stop-opacity="1" stop-color="rgb(0.801086%, 33.798218%, 32.505798%)" offset="0.332031"/><stop stop-opacity="1" stop-color="rgb(0.796509%, 34.00116%, 32.685852%)" offset="0.335938"/><stop stop-opacity="1" stop-color="rgb(0.791931%, 34.204102%, 32.86438%)" offset="0.339844"/><stop stop-opacity="1" stop-color="rgb(0.787354%, 34.408569%, 33.042908%)" offset="0.34375"/><stop stop-opacity="1" stop-color="rgb(0.78125%, 34.611511%, 33.221436%)" offset="0.347656"/><stop stop-opacity="1" stop-color="rgb(0.776672%, 34.815979%, 33.401489%)" offset="0.351562"/><stop stop-opacity="1" stop-color="rgb(0.772095%, 35.018921%, 33.580017%)" offset="0.355469"/><stop stop-opacity="1" stop-color="rgb(0.767517%, 35.223389%, 33.758545%)" offset="0.359375"/><stop stop-opacity="1" stop-color="rgb(0.762939%, 35.426331%, 33.937073%)" offset="0.363281"/><stop stop-opacity="1" stop-color="rgb(0.758362%, 35.629272%, 34.117126%)" offset="0.367188"/><stop stop-opacity="1" stop-color="rgb(0.753784%, 35.832214%, 34.295654%)" offset="0.371094"/><stop stop-opacity="1" stop-color="rgb(0.749207%, 36.036682%, 34.474182%)" offset="0.375"/><stop stop-opacity="1" stop-color="rgb(0.744629%, 36.239624%, 34.65271%)" offset="0.378906"/><stop stop-opacity="1" stop-color="rgb(0.740051%, 36.444092%, 34.832764%)" offset="0.382813"/><stop stop-opacity="1" stop-color="rgb(0.735474%, 36.647034%, 35.011292%)" offset="0.386719"/><stop stop-opacity="1" stop-color="rgb(0.730896%, 36.851501%, 35.189819%)" offset="0.390625"/><stop stop-opacity="1" stop-color="rgb(0.726318%, 37.054443%, 35.368347%)" offset="0.394531"/><stop stop-opacity="1" stop-color="rgb(0.721741%, 37.257385%, 35.548401%)" offset="0.398438"/><stop stop-opacity="1" stop-color="rgb(0.715637%, 37.460327%, 35.726929%)" offset="0.402344"/><stop stop-opacity="1" stop-color="rgb(0.71106%, 37.664795%, 35.905457%)" offset="0.40625"/><stop stop-opacity="1" stop-color="rgb(0.706482%, 37.867737%, 36.083984%)" offset="0.410156"/><stop stop-opacity="1" stop-color="rgb(0.701904%, 38.072205%, 36.264038%)" offset="0.414063"/><stop stop-opacity="1" stop-color="rgb(0.697327%, 38.275146%, 36.442566%)" offset="0.417969"/><stop stop-opacity="1" stop-color="rgb(0.692749%, 38.479614%, 36.621094%)" offset="0.421875"/><stop stop-opacity="1" stop-color="rgb(0.688171%, 38.682556%, 36.799622%)" offset="0.425781"/><stop stop-opacity="1" stop-color="rgb(0.683594%, 38.885498%, 36.979675%)" offset="0.429688"/><stop stop-opacity="1" stop-color="rgb(0.679016%, 39.08844%, 37.158203%)" offset="0.433594"/><stop stop-opacity="1" stop-color="rgb(0.674438%, 39.292908%, 37.336731%)" offset="0.4375"/><stop stop-opacity="1" stop-color="rgb(0.669861%, 39.49585%, 37.515259%)" offset="0.441406"/><stop stop-opacity="1" stop-color="rgb(0.665283%, 39.700317%, 37.693787%)" offset="0.445312"/><stop stop-opacity="1" stop-color="rgb(0.660706%, 39.903259%, 37.872314%)" offset="0.449219"/><stop stop-opacity="1" stop-color="rgb(0.656128%, 40.107727%, 38.052368%)" offset="0.453125"/><stop stop-opacity="1" stop-color="rgb(0.650024%, 40.310669%, 38.230896%)" offset="0.457031"/><stop stop-opacity="1" stop-color="rgb(0.645447%, 40.513611%, 38.409424%)" offset="0.460938"/><stop stop-opacity="1" stop-color="rgb(0.640869%, 40.716553%, 38.587952%)" offset="0.464844"/><stop stop-opacity="1" stop-color="rgb(0.636292%, 40.921021%, 38.768005%)" offset="0.46875"/><stop stop-opacity="1" stop-color="rgb(0.631714%, 41.123962%, 38.946533%)" offset="0.472656"/><stop stop-opacity="1" stop-color="rgb(0.627136%, 41.32843%, 39.125061%)" offset="0.476563"/><stop stop-opacity="1" stop-color="rgb(0.622559%, 41.531372%, 39.303589%)" offset="0.480469"/><stop stop-opacity="1" stop-color="rgb(0.617981%, 41.73584%, 39.483643%)" offset="0.484375"/><stop stop-opacity="1" stop-color="rgb(0.613403%, 41.938782%, 39.66217%)" offset="0.488281"/><stop stop-opacity="1" stop-color="rgb(0.608826%, 42.141724%, 39.840698%)" offset="0.492188"/><stop stop-opacity="1" stop-color="rgb(0.604248%, 42.344666%, 40.019226%)" offset="0.496094"/><stop stop-opacity="1" stop-color="rgb(0.59967%, 42.549133%, 40.19928%)" offset="0.5"/><stop stop-opacity="1" stop-color="rgb(0.595093%, 42.752075%, 40.377808%)" offset="0.503906"/><stop stop-opacity="1" stop-color="rgb(0.590515%, 42.956543%, 40.556335%)" offset="0.507812"/><stop stop-opacity="1" stop-color="rgb(0.584412%, 43.159485%, 40.734863%)" offset="0.511719"/><stop stop-opacity="1" stop-color="rgb(0.579834%, 43.363953%, 40.914917%)" offset="0.515625"/><stop stop-opacity="1" stop-color="rgb(0.575256%, 43.566895%, 41.093445%)" offset="0.519531"/><stop stop-opacity="1" stop-color="rgb(0.570679%, 43.769836%, 41.271973%)" offset="0.523438"/><stop stop-opacity="1" stop-color="rgb(0.566101%, 43.972778%, 41.4505%)" offset="0.527344"/><stop stop-opacity="1" stop-color="rgb(0.561523%, 44.177246%, 41.630554%)" offset="0.53125"/><stop stop-opacity="1" stop-color="rgb(0.556946%, 44.380188%, 41.809082%)" offset="0.535156"/><stop stop-opacity="1" stop-color="rgb(0.552368%, 44.584656%, 41.98761%)" offset="0.539062"/><stop stop-opacity="1" stop-color="rgb(0.547791%, 44.787598%, 42.166138%)" offset="0.542969"/><stop stop-opacity="1" stop-color="rgb(0.543213%, 44.992065%, 42.346191%)" offset="0.546875"/><stop stop-opacity="1" stop-color="rgb(0.538635%, 45.195007%, 42.524719%)" offset="0.550781"/><stop stop-opacity="1" stop-color="rgb(0.534058%, 45.397949%, 42.703247%)" offset="0.554687"/><stop stop-opacity="1" stop-color="rgb(0.52948%, 45.600891%, 42.881775%)" offset="0.558594"/><stop stop-opacity="1" stop-color="rgb(0.524902%, 45.805359%, 43.061829%)" offset="0.5625"/><stop stop-opacity="1" stop-color="rgb(0.518799%, 46.008301%, 43.240356%)" offset="0.566406"/><stop stop-opacity="1" stop-color="rgb(0.514221%, 46.212769%, 43.418884%)" offset="0.570313"/><stop stop-opacity="1" stop-color="rgb(0.509644%, 46.41571%, 43.597412%)" offset="0.574219"/><stop stop-opacity="1" stop-color="rgb(0.505066%, 46.620178%, 43.777466%)" offset="0.578125"/><stop stop-opacity="1" stop-color="rgb(0.500488%, 46.82312%, 43.955994%)" offset="0.582031"/><stop stop-opacity="1" stop-color="rgb(0.495911%, 47.026062%, 44.134521%)" offset="0.585938"/><stop stop-opacity="1" stop-color="rgb(0.491333%, 47.229004%, 44.313049%)" offset="0.589844"/><stop stop-opacity="1" stop-color="rgb(0.486755%, 47.433472%, 44.493103%)" offset="0.59375"/><stop stop-opacity="1" stop-color="rgb(0.482178%, 47.636414%, 44.671631%)" offset="0.597656"/><stop stop-opacity="1" stop-color="rgb(0.4776%, 47.840881%, 44.850159%)" offset="0.601562"/><stop stop-opacity="1" stop-color="rgb(0.473022%, 48.043823%, 45.028687%)" offset="0.605469"/><stop stop-opacity="1" stop-color="rgb(0.468445%, 48.248291%, 45.20874%)" offset="0.609375"/><stop stop-opacity="1" stop-color="rgb(0.463867%, 48.451233%, 45.387268%)" offset="0.613281"/><stop stop-opacity="1" stop-color="rgb(0.45929%, 48.654175%, 45.565796%)" offset="0.617188"/><stop stop-opacity="1" stop-color="rgb(0.453186%, 48.857117%, 45.744324%)" offset="0.621094"/><stop stop-opacity="1" stop-color="rgb(0.448608%, 49.061584%, 45.924377%)" offset="0.625"/><stop stop-opacity="1" stop-color="rgb(0.444031%, 49.264526%, 46.102905%)" offset="0.628906"/><stop stop-opacity="1" stop-color="rgb(0.439453%, 49.468994%, 46.281433%)" offset="0.632812"/><stop stop-opacity="1" stop-color="rgb(0.434875%, 49.671936%, 46.459961%)" offset="0.636719"/><stop stop-opacity="1" stop-color="rgb(0.430298%, 49.876404%, 46.640015%)" offset="0.640625"/><stop stop-opacity="1" stop-color="rgb(0.42572%, 50.079346%, 46.818542%)" offset="0.644531"/><stop stop-opacity="1" stop-color="rgb(0.421143%, 50.282288%, 46.99707%)" offset="0.648437"/><stop stop-opacity="1" stop-color="rgb(0.416565%, 50.485229%, 47.175598%)" offset="0.652344"/><stop stop-opacity="1" stop-color="rgb(0.411987%, 50.689697%, 47.355652%)" offset="0.65625"/><stop stop-opacity="1" stop-color="rgb(0.40741%, 50.892639%, 47.53418%)" offset="0.660156"/><stop stop-opacity="1" stop-color="rgb(0.402832%, 51.097107%, 47.712708%)" offset="0.664063"/><stop stop-opacity="1" stop-color="rgb(0.398254%, 51.300049%, 47.891235%)" offset="0.667969"/><stop stop-opacity="1" stop-color="rgb(0.393677%, 51.504517%, 48.071289%)" offset="0.671875"/><stop stop-opacity="1" stop-color="rgb(0.387573%, 51.707458%, 48.249817%)" offset="0.675781"/><stop stop-opacity="1" stop-color="rgb(0.382996%, 51.9104%, 48.428345%)" offset="0.679688"/><stop stop-opacity="1" stop-color="rgb(0.378418%, 52.113342%, 48.606873%)" offset="0.683594"/><stop stop-opacity="1" stop-color="rgb(0.37384%, 52.31781%, 48.786926%)" offset="0.6875"/><stop stop-opacity="1" stop-color="rgb(0.369263%, 52.520752%, 48.965454%)" offset="0.691406"/><stop stop-opacity="1" stop-color="rgb(0.364685%, 52.72522%, 49.143982%)" offset="0.695312"/><stop stop-opacity="1" stop-color="rgb(0.360107%, 52.928162%, 49.32251%)" offset="0.699219"/><stop stop-opacity="1" stop-color="rgb(0.35553%, 53.132629%, 49.502563%)" offset="0.703125"/><stop stop-opacity="1" stop-color="rgb(0.350952%, 53.335571%, 49.681091%)" offset="0.707031"/><stop stop-opacity="1" stop-color="rgb(0.346375%, 53.538513%, 49.859619%)" offset="0.710938"/><stop stop-opacity="1" stop-color="rgb(0.341797%, 53.741455%, 50.038147%)" offset="0.714844"/><stop stop-opacity="1" stop-color="rgb(0.337219%, 53.945923%, 50.218201%)" offset="0.71875"/><stop stop-opacity="1" stop-color="rgb(0.332642%, 54.148865%, 50.396729%)" offset="0.722656"/><stop stop-opacity="1" stop-color="rgb(0.328064%, 54.353333%, 50.575256%)" offset="0.726562"/><stop stop-opacity="1" stop-color="rgb(0.32196%, 54.556274%, 50.753784%)" offset="0.730469"/><stop stop-opacity="1" stop-color="rgb(0.317383%, 54.760742%, 50.933838%)" offset="0.734375"/><stop stop-opacity="1" stop-color="rgb(0.312805%, 54.963684%, 51.112366%)" offset="0.738281"/><stop stop-opacity="1" stop-color="rgb(0.308228%, 55.166626%, 51.290894%)" offset="0.742188"/><stop stop-opacity="1" stop-color="rgb(0.30365%, 55.369568%, 51.469421%)" offset="0.746094"/><stop stop-opacity="1" stop-color="rgb(0.299072%, 55.574036%, 51.649475%)" offset="0.75"/><stop stop-opacity="1" stop-color="rgb(0.294495%, 55.776978%, 51.828003%)" offset="0.753906"/><stop stop-opacity="1" stop-color="rgb(0.289917%, 55.981445%, 52.006531%)" offset="0.757813"/><stop stop-opacity="1" stop-color="rgb(0.285339%, 56.184387%, 52.185059%)" offset="0.761719"/><stop stop-opacity="1" stop-color="rgb(0.280762%, 56.388855%, 52.365112%)" offset="0.765625"/><stop stop-opacity="1" stop-color="rgb(0.276184%, 56.591797%, 52.54364%)" offset="0.769531"/><stop stop-opacity="1" stop-color="rgb(0.271606%, 56.794739%, 52.722168%)" offset="0.773438"/><stop stop-opacity="1" stop-color="rgb(0.267029%, 56.997681%, 52.900696%)" offset="0.777344"/><stop stop-opacity="1" stop-color="rgb(0.262451%, 57.202148%, 53.08075%)" offset="0.78125"/><stop stop-opacity="1" stop-color="rgb(0.256348%, 57.40509%, 53.259277%)" offset="0.785156"/><stop stop-opacity="1" stop-color="rgb(0.25177%, 57.609558%, 53.437805%)" offset="0.789062"/><stop stop-opacity="1" stop-color="rgb(0.247192%, 57.8125%, 53.616333%)" offset="0.792969"/><stop stop-opacity="1" stop-color="rgb(0.242615%, 58.016968%, 53.796387%)" offset="0.796875"/><stop stop-opacity="1" stop-color="rgb(0.238037%, 58.21991%, 53.974915%)" offset="0.800781"/><stop stop-opacity="1" stop-color="rgb(0.233459%, 58.422852%, 54.153442%)" offset="0.804688"/><stop stop-opacity="1" stop-color="rgb(0.228882%, 58.625793%, 54.33197%)" offset="0.808594"/><stop stop-opacity="1" stop-color="rgb(0.224304%, 58.830261%, 54.512024%)" offset="0.8125"/><stop stop-opacity="1" stop-color="rgb(0.219727%, 59.033203%, 54.690552%)" offset="0.816406"/><stop stop-opacity="1" stop-color="rgb(0.215149%, 59.237671%, 54.86908%)" offset="0.820312"/><stop stop-opacity="1" stop-color="rgb(0.210571%, 59.440613%, 55.047607%)" offset="0.824219"/><stop stop-opacity="1" stop-color="rgb(0.205994%, 59.645081%, 55.227661%)" offset="0.828125"/><stop stop-opacity="1" stop-color="rgb(0.201416%, 59.848022%, 55.406189%)" offset="0.832031"/><stop stop-opacity="1" stop-color="rgb(0.196838%, 60.050964%, 55.584717%)" offset="0.835938"/><stop stop-opacity="1" stop-color="rgb(0.190735%, 60.253906%, 55.763245%)" offset="0.839844"/><stop stop-opacity="1" stop-color="rgb(0.186157%, 60.458374%, 55.943298%)" offset="0.84375"/><stop stop-opacity="1" stop-color="rgb(0.18158%, 60.661316%, 56.121826%)" offset="0.847656"/><stop stop-opacity="1" stop-color="rgb(0.177002%, 60.865784%, 56.300354%)" offset="0.851563"/><stop stop-opacity="1" stop-color="rgb(0.172424%, 61.068726%, 56.478882%)" offset="0.855469"/><stop stop-opacity="1" stop-color="rgb(0.167847%, 61.273193%, 56.658936%)" offset="0.859375"/><stop stop-opacity="1" stop-color="rgb(0.163269%, 61.476135%, 56.837463%)" offset="0.863281"/><stop stop-opacity="1" stop-color="rgb(0.158691%, 61.679077%, 57.015991%)" offset="0.867188"/><stop stop-opacity="1" stop-color="rgb(0.154114%, 61.882019%, 57.194519%)" offset="0.871094"/><stop stop-opacity="1" stop-color="rgb(0.149536%, 62.086487%, 57.374573%)" offset="0.875"/><stop stop-opacity="1" stop-color="rgb(0.144958%, 62.289429%, 57.553101%)" offset="0.878906"/><stop stop-opacity="1" stop-color="rgb(0.140381%, 62.493896%, 57.731628%)" offset="0.882812"/><stop stop-opacity="1" stop-color="rgb(0.135803%, 62.696838%, 57.910156%)" offset="0.886719"/><stop stop-opacity="1" stop-color="rgb(0.131226%, 62.901306%, 58.09021%)" offset="0.890625"/><stop stop-opacity="1" stop-color="rgb(0.125122%, 63.104248%, 58.268738%)" offset="0.894531"/><stop stop-opacity="1" stop-color="rgb(0.120544%, 63.30719%, 58.447266%)" offset="0.898437"/><stop stop-opacity="1" stop-color="rgb(0.115967%, 63.510132%, 58.625793%)" offset="0.902344"/><stop stop-opacity="1" stop-color="rgb(0.111389%, 63.7146%, 58.805847%)" offset="0.90625"/><stop stop-opacity="1" stop-color="rgb(0.106812%, 63.917542%, 58.984375%)" offset="0.910156"/><stop stop-opacity="1" stop-color="rgb(0.102234%, 64.122009%, 59.162903%)" offset="0.914063"/><stop stop-opacity="1" stop-color="rgb(0.0976562%, 64.324951%, 59.341431%)" offset="0.917969"/><stop stop-opacity="1" stop-color="rgb(0.0930786%, 64.529419%, 59.521484%)" offset="0.921875"/><stop stop-opacity="1" stop-color="rgb(0.088501%, 64.732361%, 59.700012%)" offset="0.925781"/><stop stop-opacity="1" stop-color="rgb(0.0839233%, 64.935303%, 59.87854%)" offset="0.929688"/><stop stop-opacity="1" stop-color="rgb(0.0793457%, 65.138245%, 60.057068%)" offset="0.933594"/><stop stop-opacity="1" stop-color="rgb(0.0747681%, 65.342712%, 60.237122%)" offset="0.9375"/><stop stop-opacity="1" stop-color="rgb(0.0701904%, 65.545654%, 60.415649%)" offset="0.941406"/><stop stop-opacity="1" stop-color="rgb(0.0656128%, 65.750122%, 60.594177%)" offset="0.945312"/><stop stop-opacity="1" stop-color="rgb(0.0595093%, 65.953064%, 60.772705%)" offset="0.949219"/><stop stop-opacity="1" stop-color="rgb(0.0549316%, 66.157532%, 60.952759%)" offset="0.953125"/><stop stop-opacity="1" stop-color="rgb(0.050354%, 66.360474%, 61.131287%)" offset="0.957031"/><stop stop-opacity="1" stop-color="rgb(0.0457764%, 66.563416%, 61.309814%)" offset="0.960938"/><stop stop-opacity="1" stop-color="rgb(0.0411987%, 66.766357%, 61.488342%)" offset="0.964844"/><stop stop-opacity="1" stop-color="rgb(0.0366211%, 66.970825%, 61.668396%)" offset="0.96875"/><stop stop-opacity="1" stop-color="rgb(0.0320435%, 67.173767%, 61.846924%)" offset="0.972656"/><stop stop-opacity="1" stop-color="rgb(0.0274658%, 67.378235%, 62.025452%)" offset="0.976562"/><stop stop-opacity="1" stop-color="rgb(0.0228882%, 67.581177%, 62.203979%)" offset="0.980469"/><stop stop-opacity="1" stop-color="rgb(0.0183105%, 67.785645%, 62.384033%)" offset="0.984375"/><stop stop-opacity="1" stop-color="rgb(0.0137329%, 67.988586%, 62.562561%)" offset="0.988281"/><stop stop-opacity="1" stop-color="rgb(0.00915527%, 68.191528%, 62.741089%)" offset="0.992187"/><stop stop-opacity="1" stop-color="rgb(0.00457764%, 68.39447%, 62.919617%)" offset="0.996094"/><stop stop-opacity="1" stop-color="rgb(0%, 68.598938%, 63.09967%)" offset="1"/></linearGradient><clipPath id="483c640cf5"><path d="M 65.082031 96.296875 L 309.582031 96.296875 L 309.582031 278 L 65.082031 278 Z M 65.082031 96.296875 " clip-rule="nonzero"/></clipPath></defs><g clip-path="url(#01e739b8ff)"><g clip-path="url(#e4372d8df7)"><path fill="url(#b1a99169b7)" d="M 23.578125 23.578125 L 23.578125 351.421875 L 351.421875 351.421875 L 351.421875 23.578125 Z M 23.578125 23.578125 " fill-rule="nonzero"/></g></g><g clip-path="url(#483c640cf5)"><path fill="#ffffff" d="M 306.664062 239.683594 C 305.914062 238.296875 305.042969 236.992188 304.050781 235.765625 C 303.0625 234.535156 301.96875 233.410156 300.769531 232.382812 C 299.574219 231.355469 298.292969 230.449219 296.929688 229.65625 C 295.566406 228.867188 294.140625 228.207031 292.652344 227.675781 C 290.359375 228.363281 288.035156 228.910156 285.675781 229.324219 C 280.453125 230.332031 275.519531 231.285156 270.832031 235.910156 C 266.140625 240.546875 264.519531 244.832031 262.804688 249.367188 C 261.75 252.160156 260.660156 255.046875 258.824219 257.929688 C 259.085938 259.363281 259.503906 260.75 260.078125 262.085938 C 260.535156 263.191406 261.070312 264.257812 261.675781 265.285156 C 262.285156 266.316406 262.957031 267.296875 263.703125 268.234375 C 264.445312 269.167969 265.25 270.046875 266.117188 270.871094 C 266.980469 271.695312 267.898438 272.453125 268.871094 273.152344 C 269.84375 273.847656 270.855469 274.472656 271.914062 275.027344 C 272.972656 275.582031 274.066406 276.058594 275.191406 276.464844 C 276.316406 276.867188 277.460938 277.191406 278.632812 277.433594 C 279.800781 277.675781 280.984375 277.839844 282.175781 277.917969 C 283.367188 277.996094 284.558594 277.992188 285.75 277.90625 C 286.941406 277.820312 288.121094 277.652344 289.292969 277.402344 C 290.460938 277.152344 291.605469 276.820312 292.726562 276.410156 C 293.851562 276 294.9375 275.515625 295.992188 274.957031 C 297.046875 274.394531 298.058594 273.761719 299.027344 273.0625 C 299.992188 272.359375 300.90625 271.59375 301.769531 270.765625 C 302.628906 269.9375 303.429688 269.054688 304.167969 268.113281 C 304.90625 267.171875 305.574219 266.1875 306.175781 265.152344 C 306.472656 264.648438 306.753906 264.136719 307.019531 263.613281 C 308.511719 260.652344 309.394531 257.523438 309.675781 254.222656 C 309.738281 253.492188 309.785156 252.761719 309.785156 252.015625 C 309.792969 247.640625 308.75 243.53125 306.664062 239.683594 Z M 297.660156 255.648438 C 297.5 256.214844 297.304688 256.773438 297.074219 257.316406 C 296.847656 257.859375 296.585938 258.386719 296.289062 258.898438 C 295.992188 259.40625 295.667969 259.898438 295.308594 260.367188 C 294.953125 260.835938 294.566406 261.28125 294.152344 261.703125 C 293.738281 262.125 293.300781 262.515625 292.839844 262.882812 C 292.378906 263.25 291.894531 263.585938 291.386719 263.890625 C 290.882812 264.195312 290.363281 264.46875 289.824219 264.707031 C 289.285156 264.949219 288.730469 265.152344 288.167969 265.324219 C 287.601562 265.492188 287.027344 265.628906 286.445312 265.726562 C 285.867188 265.824219 285.28125 265.886719 284.691406 265.910156 C 284.101562 265.9375 283.511719 265.925781 282.925781 265.875 C 282.335938 265.828125 281.753906 265.742188 281.175781 265.617188 C 280.601562 265.496094 280.03125 265.339844 279.476562 265.144531 C 278.917969 264.953125 278.375 264.722656 277.847656 264.460938 C 277.316406 264.199219 276.808594 263.90625 276.316406 263.582031 C 275.824219 263.253906 275.355469 262.898438 274.90625 262.515625 C 274.460938 262.128906 274.039062 261.71875 273.644531 261.28125 C 273.246094 260.84375 272.878906 260.382812 272.542969 259.898438 C 272.207031 259.414062 271.898438 258.910156 271.625 258.390625 C 271.351562 257.867188 271.109375 257.328125 270.902344 256.777344 C 270.695312 256.226562 270.523438 255.660156 270.386719 255.085938 C 270.253906 254.511719 270.152344 253.933594 270.089844 253.347656 C 270.027344 252.761719 270 252.171875 270.011719 251.582031 C 270.019531 250.992188 270.066406 250.40625 270.152344 249.820312 C 270.238281 249.238281 270.359375 248.660156 270.515625 248.09375 C 270.671875 247.523438 270.863281 246.964844 271.089844 246.421875 C 271.316406 245.878906 271.574219 245.347656 271.867188 244.835938 C 272.160156 244.324219 272.484375 243.832031 272.839844 243.363281 C 273.195312 242.890625 273.578125 242.441406 273.988281 242.019531 C 274.402344 241.597656 274.835938 241.199219 275.296875 240.832031 C 275.757812 240.464844 276.238281 240.125 276.742188 239.816406 C 277.246094 239.511719 277.765625 239.234375 278.304688 238.992188 C 278.84375 238.75 279.394531 238.542969 279.957031 238.367188 C 280.519531 238.195312 281.09375 238.058594 281.675781 237.957031 C 282.257812 237.855469 282.839844 237.789062 283.429688 237.761719 C 284.019531 237.734375 284.609375 237.742188 285.195312 237.789062 C 285.785156 237.835938 286.367188 237.917969 286.945312 238.039062 C 287.523438 238.15625 288.089844 238.3125 288.648438 238.503906 C 289.207031 238.691406 289.753906 238.917969 290.28125 239.175781 C 290.8125 239.4375 291.324219 239.726562 291.816406 240.050781 C 292.3125 240.375 292.78125 240.726562 293.230469 241.109375 C 293.679688 241.492188 294.105469 241.902344 294.503906 242.335938 C 294.898438 242.773438 295.269531 243.230469 295.609375 243.714844 C 295.949219 244.195312 296.257812 244.695312 296.535156 245.21875 C 296.8125 245.738281 297.054688 246.273438 297.265625 246.824219 C 297.476562 247.378906 297.648438 247.941406 297.789062 248.511719 C 297.925781 249.085938 298.03125 249.667969 298.097656 250.253906 C 298.164062 250.839844 298.191406 251.425781 298.183594 252.015625 C 298.167969 253.25 297.992188 254.460938 297.660156 255.648438 Z M 272.488281 231.972656 C 273.933594 230.96875 275.476562 230.144531 277.121094 229.511719 C 277.640625 229.308594 278.160156 229.125 278.683594 228.957031 C 280.769531 228.328125 282.886719 227.824219 285.035156 227.453125 C 285.570312 227.347656 286.109375 227.242188 286.648438 227.136719 C 287.402344 226.988281 288.164062 226.828125 288.925781 226.652344 C 289.25 226.578125 289.574219 226.507812 289.898438 226.425781 C 291.59375 226.015625 293.242188 225.472656 294.84375 224.792969 C 295.890625 224.347656 296.902344 223.832031 297.878906 223.246094 C 298.296875 222.992188 298.667969 222.746094 299.003906 222.511719 C 299.886719 221.929688 300.671875 221.238281 301.355469 220.433594 C 299.203125 218.835938 296.882812 217.546875 294.386719 216.566406 C 294.179688 216.484375 293.976562 216.394531 293.769531 216.316406 C 292.65625 215.890625 291.519531 215.523438 290.367188 215.21875 C 290.148438 215.160156 289.921875 215.109375 289.699219 215.054688 C 288.488281 214.75 287.261719 214.515625 286.019531 214.351562 C 284.746094 214.199219 283.464844 214.117188 282.183594 214.105469 C 281.9375 214.101562 281.691406 214.09375 281.445312 214.09375 C 280.4375 214.105469 279.421875 214.144531 278.402344 214.246094 C 274.277344 214.660156 270.363281 215.796875 266.660156 217.664062 L 268.785156 214.582031 L 269.828125 213.066406 C 270.324219 212.34375 270.726562 211.574219 271.039062 210.753906 C 271.347656 209.9375 271.554688 209.089844 271.660156 208.222656 C 271.761719 207.351562 271.761719 206.484375 271.65625 205.613281 C 271.546875 204.746094 271.335938 203.902344 271.027344 203.085938 L 257.15625 166.710938 L 265.703125 168.070312 C 265.921875 168.105469 266.140625 168.117188 266.359375 168.101562 C 266.578125 168.089844 266.792969 168.054688 267.003906 167.992188 C 267.214844 167.933594 267.417969 167.851562 267.613281 167.75 C 267.804688 167.644531 267.984375 167.523438 268.152344 167.378906 C 268.320312 167.238281 268.46875 167.078125 268.601562 166.902344 C 268.734375 166.730469 268.847656 166.542969 268.9375 166.34375 C 269.03125 166.144531 269.101562 165.9375 269.148438 165.722656 C 269.195312 165.507812 269.21875 165.289062 269.21875 165.070312 L 269.21875 149.101562 C 269.21875 148.882812 269.195312 148.667969 269.148438 148.453125 C 269.101562 148.238281 269.03125 148.03125 268.9375 147.832031 C 268.847656 147.632812 268.734375 147.445312 268.601562 147.269531 C 268.46875 147.09375 268.320312 146.9375 268.152344 146.792969 C 267.984375 146.652344 267.804688 146.527344 267.613281 146.425781 C 267.417969 146.320312 267.214844 146.238281 267.003906 146.179688 C 266.792969 146.121094 266.578125 146.082031 266.359375 146.070312 C 266.140625 146.058594 265.921875 146.070312 265.703125 146.101562 L 246.101562 149.222656 C 245.683594 149.289062 245.289062 149.425781 244.917969 149.632812 C 244.546875 149.839844 244.226562 150.105469 243.949219 150.429688 C 243.675781 150.75 243.464844 151.109375 243.316406 151.507812 C 243.171875 151.90625 243.097656 152.316406 243.097656 152.742188 L 243.097656 155.683594 C 242.796875 155.621094 242.496094 155.582031 242.191406 155.566406 L 226.5625 155.367188 C 226.035156 155.347656 225.535156 155.222656 225.0625 154.988281 C 224.589844 154.75 224.1875 154.429688 223.855469 154.019531 L 209.707031 136.59375 C 201.882812 127 188.527344 129.988281 186.011719 142.109375 L 178.660156 169.75 C 178.425781 170.878906 178.296875 172.015625 178.269531 173.167969 C 178.246094 174.316406 178.328125 175.460938 178.519531 176.59375 C 178.707031 177.730469 179 178.839844 179.394531 179.917969 C 179.789062 181 180.28125 182.035156 180.867188 183.023438 C 181.453125 184.015625 182.128906 184.941406 182.886719 185.804688 C 183.648438 186.671875 184.480469 187.457031 185.386719 188.167969 C 186.292969 188.875 187.257812 189.496094 188.277344 190.027344 C 189.300781 190.558594 190.363281 190.988281 191.464844 191.320312 L 146.042969 191.320312 C 145.820312 191.320312 145.605469 191.363281 145.402344 191.449219 C 145.195312 191.535156 145.011719 191.65625 144.855469 191.8125 C 144.699219 191.972656 144.578125 192.152344 144.492188 192.359375 C 144.40625 192.566406 144.363281 192.78125 144.363281 193.003906 L 144.363281 199.324219 C 144.363281 199.546875 144.40625 199.757812 144.492188 199.964844 C 144.578125 200.171875 144.699219 200.351562 144.855469 200.511719 C 145.011719 200.667969 145.195312 200.789062 145.402344 200.875 C 145.605469 200.960938 145.820312 201.003906 146.042969 201.003906 L 209.003906 201.003906 C 209.226562 201.003906 209.441406 200.960938 209.644531 200.875 C 209.851562 200.789062 210.035156 200.667969 210.191406 200.511719 C 210.347656 200.351562 210.46875 200.171875 210.554688 199.964844 C 210.640625 199.757812 210.683594 199.546875 210.683594 199.324219 L 210.683594 194.320312 L 219.269531 195.554688 L 212.472656 225.773438 C 212.394531 226.222656 212.359375 226.675781 212.367188 227.128906 C 212.378906 227.585938 212.429688 228.035156 212.527344 228.480469 C 212.625 228.925781 212.761719 229.359375 212.941406 229.777344 C 213.125 230.195312 213.34375 230.589844 213.601562 230.96875 C 213.859375 231.34375 214.152344 231.691406 214.476562 232.007812 C 214.804688 232.328125 215.15625 232.609375 215.539062 232.859375 C 215.917969 233.109375 216.320312 233.320312 216.742188 233.492188 C 217.164062 233.664062 217.601562 233.792969 218.046875 233.878906 C 218.496094 233.964844 218.945312 234.007812 219.402344 234.003906 C 219.859375 234.003906 220.308594 233.957031 220.753906 233.867188 C 221.203125 233.78125 221.636719 233.648438 222.058594 233.472656 C 222.476562 233.300781 222.878906 233.085938 223.257812 232.835938 C 223.636719 232.582031 223.988281 232.296875 224.3125 231.976562 C 224.636719 231.65625 224.925781 231.304688 225.183594 230.929688 C 225.4375 230.550781 225.652344 230.152344 225.832031 229.734375 C 226.011719 229.3125 226.144531 228.882812 226.238281 228.4375 L 234.632812 195.085938 C 234.804688 194.285156 234.894531 193.472656 234.90625 192.652344 C 234.914062 191.832031 234.84375 191.019531 234.695312 190.210938 C 234.542969 189.40625 234.3125 188.621094 234.007812 187.863281 C 233.699219 187.101562 233.320312 186.378906 232.871094 185.691406 C 232.417969 185.007812 231.90625 184.371094 231.328125 183.789062 C 230.753906 183.203125 230.125 182.683594 229.445312 182.222656 C 228.765625 181.761719 228.046875 181.375 227.289062 181.058594 C 226.535156 180.742188 225.753906 180.503906 224.949219 180.339844 C 217.882812 178.921875 209.101562 177.207031 204.53125 176.320312 C 204.125 176.242188 203.75 176.085938 203.40625 175.855469 C 203.0625 175.625 202.777344 175.332031 202.550781 174.988281 C 202.328125 174.640625 202.179688 174.261719 202.105469 173.851562 C 202.035156 173.445312 202.042969 173.039062 202.136719 172.636719 L 206.402344 153.679688 L 214.386719 163.140625 C 215.054688 163.960938 215.808594 164.695312 216.648438 165.34375 C 217.484375 165.992188 218.386719 166.535156 219.351562 166.972656 C 220.316406 167.410156 221.316406 167.730469 222.355469 167.9375 C 223.394531 168.140625 224.445312 168.226562 225.503906 168.1875 L 242.1875 167.273438 C 243.050781 167.242188 243.867188 167.03125 244.632812 166.636719 L 250.617188 199.929688 C 251.039062 202.285156 251.089844 204.644531 250.765625 207.015625 C 250.441406 209.386719 249.757812 211.648438 248.71875 213.804688 L 240.359375 231.117188 C 239.898438 232.074219 239.316406 232.945312 238.609375 233.734375 C 237.902344 234.523438 237.101562 235.199219 236.203125 235.761719 C 235.308594 236.324219 234.351562 236.753906 233.332031 237.046875 C 232.316406 237.339844 231.277344 237.484375 230.21875 237.484375 L 214.371094 237.484375 C 213.972656 237.484375 213.574219 237.464844 213.175781 237.417969 C 212.78125 237.375 212.386719 237.308594 211.996094 237.222656 C 211.605469 237.132812 211.222656 237.027344 210.84375 236.894531 C 210.46875 236.765625 210.097656 236.617188 209.738281 236.445312 C 209.375 236.273438 209.023438 236.082031 208.683594 235.875 C 208.34375 235.664062 208.015625 235.4375 207.699219 235.191406 C 207.386719 234.945312 207.085938 234.683594 206.800781 234.40625 C 206.511719 234.125 206.242188 233.832031 205.988281 233.523438 C 205.734375 233.214844 205.5 232.890625 205.28125 232.558594 C 205.0625 232.222656 204.863281 231.878906 204.683594 231.519531 C 204.503906 231.164062 204.34375 230.796875 204.207031 230.421875 C 204.066406 230.050781 203.949219 229.667969 203.851562 229.28125 C 203.753906 228.894531 203.675781 228.5 203.625 228.105469 C 203.570312 227.710938 203.539062 227.3125 203.527344 226.910156 C 203.515625 226.511719 203.527344 226.113281 203.5625 225.714844 C 203.597656 225.316406 203.652344 224.921875 203.730469 224.53125 L 207.902344 203.449219 L 147.90625 203.449219 C 147.066406 203.445312 146.285156 203.667969 145.570312 204.109375 C 145.007812 204.460938 144.25 204.949219 143.347656 205.570312 C 142.847656 205.914062 142.292969 206.089844 141.6875 206.09375 L 116.042969 206.09375 C 115.628906 206.09375 115.234375 206.171875 114.855469 206.328125 C 114.476562 206.484375 114.144531 206.710938 113.851562 207 C 113.5625 207.289062 113.339844 207.625 113.179688 208.003906 C 113.023438 208.382812 112.945312 208.777344 112.945312 209.1875 C 112.945312 209.597656 113.023438 209.992188 113.179688 210.375 C 113.339844 210.753906 113.5625 211.085938 113.851562 211.378906 C 114.144531 211.667969 114.476562 211.890625 114.855469 212.046875 C 115.234375 212.207031 115.628906 212.285156 116.042969 212.285156 L 145.332031 212.285156 C 145.742188 212.285156 146.136719 212.363281 146.515625 212.519531 C 146.894531 212.675781 147.230469 212.902344 147.519531 213.191406 C 147.8125 213.480469 148.035156 213.816406 148.191406 214.195312 C 148.347656 214.574219 148.429688 214.96875 148.429688 215.378906 C 148.429688 215.789062 148.347656 216.183594 148.191406 216.5625 C 148.035156 216.945312 147.8125 217.277344 147.519531 217.570312 C 147.230469 217.859375 146.894531 218.082031 146.515625 218.238281 C 146.136719 218.398438 145.742188 218.476562 145.332031 218.476562 L 71.496094 218.476562 C 71.085938 218.476562 70.691406 218.554688 70.3125 218.710938 C 69.933594 218.867188 69.597656 219.089844 69.308594 219.382812 C 69.019531 219.671875 68.792969 220.007812 68.636719 220.386719 C 68.480469 220.765625 68.402344 221.160156 68.402344 221.570312 C 68.402344 221.980469 68.480469 222.375 68.636719 222.753906 C 68.792969 223.132812 69.019531 223.46875 69.308594 223.757812 C 69.597656 224.050781 69.933594 224.273438 70.3125 224.429688 C 70.691406 224.585938 71.085938 224.667969 71.496094 224.667969 L 130.625 224.667969 C 131.039062 224.664062 131.4375 224.738281 131.820312 224.894531 C 132.203125 225.046875 132.542969 225.269531 132.835938 225.5625 C 133.128906 225.851562 133.355469 226.1875 133.515625 226.570312 C 133.671875 226.953125 133.753906 227.347656 133.753906 227.761719 C 133.753906 228.175781 133.671875 228.570312 133.515625 228.953125 C 133.355469 229.335938 133.128906 229.671875 132.835938 229.960938 C 132.542969 230.253906 132.203125 230.476562 131.820312 230.628906 C 131.4375 230.785156 131.039062 230.859375 130.625 230.855469 L 92.710938 230.855469 C 92.300781 230.855469 91.902344 230.933594 91.523438 231.09375 C 91.144531 231.25 90.8125 231.472656 90.519531 231.761719 C 90.230469 232.054688 90.007812 232.386719 89.847656 232.769531 C 89.691406 233.148438 89.613281 233.542969 89.613281 233.953125 C 89.613281 234.363281 89.691406 234.757812 89.847656 235.136719 C 90.007812 235.515625 90.230469 235.851562 90.519531 236.140625 C 90.8125 236.429688 91.144531 236.65625 91.523438 236.8125 C 91.902344 236.96875 92.300781 237.046875 92.710938 237.046875 L 118.304688 237.046875 C 116.4375 242.410156 115.507812 247.929688 115.507812 253.605469 L 125.582031 253.605469 C 125.582031 253.664062 125.570312 253.722656 125.570312 253.785156 C 125.570312 254.480469 125.617188 255.160156 125.671875 255.839844 C 125.90625 258.671875 126.621094 261.375 127.816406 263.953125 C 129.015625 266.527344 130.617188 268.820312 132.628906 270.828125 C 133.273438 271.480469 133.953125 272.09375 134.667969 272.667969 C 135.382812 273.242188 136.132812 273.773438 136.90625 274.265625 C 137.683594 274.753906 138.488281 275.195312 139.3125 275.59375 C 140.140625 275.988281 140.988281 276.335938 141.855469 276.636719 C 142.722656 276.9375 143.605469 277.183594 144.5 277.382812 C 145.398438 277.582031 146.300781 277.726562 147.214844 277.824219 C 148.128906 277.917969 149.042969 277.957031 149.960938 277.949219 C 150.878906 277.9375 151.792969 277.875 152.703125 277.757812 C 153.613281 277.640625 154.515625 277.476562 155.40625 277.253906 C 156.296875 277.035156 157.171875 276.765625 158.03125 276.445312 C 158.894531 276.128906 159.730469 275.757812 160.550781 275.34375 C 161.367188 274.925781 162.160156 274.464844 162.925781 273.957031 C 163.691406 273.453125 164.421875 272.902344 165.125 272.3125 C 165.828125 271.71875 166.492188 271.089844 167.121094 270.421875 C 167.75 269.753906 168.339844 269.054688 168.890625 268.316406 C 169.4375 267.582031 169.945312 266.820312 170.40625 266.023438 C 170.683594 265.554688 170.945312 265.078125 171.191406 264.589844 C 172.582031 261.832031 173.40625 258.917969 173.667969 255.839844 C 173.726562 255.160156 173.769531 254.480469 173.769531 253.785156 C 173.769531 253.726562 173.761719 253.667969 173.761719 253.605469 L 232.582031 253.605469 C 234.011719 253.589844 235.421875 253.40625 236.808594 253.054688 C 238.199219 252.703125 239.527344 252.195312 240.792969 251.53125 C 242.058594 250.863281 243.230469 250.058594 244.308594 249.117188 C 245.386719 248.171875 246.335938 247.117188 247.164062 245.945312 L 248.167969 244.484375 C 247.949219 246.695312 247.949219 248.90625 248.167969 251.113281 C 248.261719 252.078125 248.421875 253.023438 248.59375 253.960938 C 249.125 256.828125 250.015625 259.578125 251.257812 262.21875 C 251.675781 262.035156 252.074219 261.824219 252.457031 261.582031 C 253.0625 261.207031 253.636719 260.785156 254.179688 260.324219 C 254.910156 259.695312 255.578125 259.007812 256.183594 258.253906 C 256.535156 257.8125 256.863281 257.351562 257.167969 256.875 C 257.566406 256.25 257.917969 255.621094 258.253906 254.992188 C 261.734375 248.429688 262.117188 241.757812 269.453125 234.511719 C 270.394531 233.582031 271.40625 232.734375 272.488281 231.972656 Z M 162.964844 253.785156 C 162.949219 254.652344 162.855469 255.507812 162.675781 256.351562 C 162.496094 257.199219 162.238281 258.019531 161.898438 258.816406 C 161.558594 259.609375 161.144531 260.367188 160.65625 261.082031 C 160.171875 261.796875 159.621094 262.457031 159.003906 263.0625 C 158.386719 263.671875 157.71875 264.214844 156.996094 264.691406 C 156.273438 265.167969 155.515625 265.570312 154.714844 265.898438 C 153.914062 266.226562 153.089844 266.472656 152.242188 266.640625 C 151.390625 266.808594 150.535156 266.890625 149.671875 266.890625 C 148.804688 266.890625 147.949219 266.808594 147.097656 266.640625 C 146.25 266.472656 145.425781 266.226562 144.625 265.898438 C 143.824219 265.570312 143.066406 265.167969 142.34375 264.691406 C 141.621094 264.214844 140.953125 263.671875 140.335938 263.0625 C 139.71875 262.457031 139.167969 261.796875 138.683594 261.082031 C 138.195312 260.367188 137.78125 259.609375 137.441406 258.816406 C 137.101562 258.019531 136.84375 257.199219 136.664062 256.351562 C 136.484375 255.507812 136.390625 254.652344 136.375 253.785156 C 136.375 253.726562 136.394531 253.667969 136.394531 253.605469 L 162.945312 253.605469 C 162.945312 253.667969 162.964844 253.726562 162.964844 253.785156 Z M 194.496094 122.316406 C 194.164062 119.832031 193.503906 114.609375 193.570312 113.242188 C 194.011719 103.722656 200.660156 96.292969 211.609375 96.800781 C 212.527344 96.84375 213.433594 96.960938 214.328125 97.148438 C 215.226562 97.332031 216.105469 97.589844 216.960938 97.917969 C 217.816406 98.242188 218.640625 98.636719 219.433594 99.09375 C 220.230469 99.550781 220.980469 100.070312 221.691406 100.644531 C 222.40625 101.222656 223.066406 101.855469 223.675781 102.535156 C 224.289062 103.21875 224.839844 103.945312 225.335938 104.71875 C 225.832031 105.488281 226.261719 106.292969 226.628906 107.132812 C 226.996094 107.972656 227.296875 108.835938 227.523438 109.722656 L 210.757812 108.945312 C 210.527344 108.933594 210.300781 108.96875 210.085938 109.046875 C 209.867188 109.125 209.675781 109.242188 209.503906 109.394531 C 209.335938 109.550781 209.199219 109.734375 209.101562 109.941406 C 209.003906 110.152344 208.949219 110.371094 208.9375 110.601562 L 208.675781 116.277344 C 208.664062 116.539062 208.691406 116.800781 208.765625 117.054688 C 208.839844 117.308594 208.949219 117.542969 209.101562 117.761719 C 209.25 117.976562 209.433594 118.164062 209.644531 118.324219 C 209.855469 118.480469 210.085938 118.601562 210.339844 118.683594 L 226.828125 124.046875 C 225.789062 127.117188 224.292969 129.945312 222.332031 132.523438 C 222.027344 132.925781 221.632812 133.191406 221.152344 133.328125 C 220.667969 133.464844 220.195312 133.445312 219.726562 133.261719 L 195.921875 124.125 C 195.535156 123.976562 195.214844 123.742188 194.960938 123.417969 C 194.703125 123.09375 194.546875 122.726562 194.492188 122.316406 Z M 98.691406 158.234375 L 68.324219 158.234375 C 68.105469 158.234375 67.890625 158.214844 67.679688 158.167969 C 67.46875 158.125 67.261719 158.054688 67.066406 157.96875 C 66.867188 157.878906 66.679688 157.773438 66.503906 157.644531 C 66.328125 157.519531 66.167969 157.375 66.023438 157.214844 C 65.878906 157.050781 65.75 156.878906 65.644531 156.691406 C 65.535156 156.503906 65.445312 156.304688 65.378906 156.101562 C 65.3125 155.894531 65.265625 155.683594 65.246094 155.46875 C 65.222656 155.25 65.222656 155.035156 65.242188 154.820312 C 65.40625 153.210938 66.878906 152.046875 68.5 152.046875 L 106.625 152.046875 C 106.84375 152.042969 107.058594 152.023438 107.269531 151.976562 C 107.480469 151.933594 107.6875 151.867188 107.886719 151.777344 C 108.082031 151.691406 108.269531 151.582031 108.445312 151.453125 C 108.621094 151.328125 108.78125 151.183594 108.925781 151.023438 C 109.070312 150.859375 109.199219 150.6875 109.304688 150.5 C 109.414062 150.3125 109.503906 150.113281 109.570312 149.910156 C 109.636719 149.703125 109.683594 149.492188 109.707031 149.277344 C 109.726562 149.0625 109.726562 148.84375 109.707031 148.628906 C 109.542969 147.019531 108.070312 145.855469 106.449219 145.855469 L 75.902344 145.855469 C 75.492188 145.855469 75.097656 145.777344 74.71875 145.617188 C 74.339844 145.460938 74.003906 145.238281 73.714844 144.949219 C 73.425781 144.65625 73.199219 144.324219 73.042969 143.941406 C 72.886719 143.5625 72.808594 143.167969 72.808594 142.757812 C 72.808594 142.347656 72.886719 141.953125 73.042969 141.574219 C 73.199219 141.195312 73.425781 140.859375 73.714844 140.570312 C 74.003906 140.28125 74.339844 140.054688 74.71875 139.898438 C 75.097656 139.742188 75.492188 139.664062 75.902344 139.664062 L 106.625 139.664062 C 106.84375 139.664062 107.058594 139.640625 107.269531 139.59375 C 107.480469 139.550781 107.6875 139.484375 107.886719 139.394531 C 108.082031 139.308594 108.269531 139.199219 108.445312 139.074219 C 108.621094 138.945312 108.78125 138.800781 108.925781 138.640625 C 109.070312 138.480469 109.199219 138.304688 109.304688 138.117188 C 109.414062 137.929688 109.503906 137.734375 109.570312 137.527344 C 109.636719 137.320312 109.683594 137.109375 109.707031 136.894531 C 109.726562 136.679688 109.726562 136.464844 109.707031 136.25 C 109.542969 134.636719 108.070312 133.472656 106.449219 133.472656 L 85.105469 133.472656 C 84.890625 133.472656 84.675781 133.449219 84.460938 133.40625 C 84.25 133.359375 84.046875 133.292969 83.847656 133.203125 C 83.648438 133.117188 83.464844 133.007812 83.289062 132.882812 C 83.113281 132.753906 82.953125 132.609375 82.808594 132.449219 C 82.660156 132.289062 82.535156 132.113281 82.425781 131.925781 C 82.316406 131.738281 82.230469 131.542969 82.164062 131.335938 C 82.09375 131.128906 82.050781 130.917969 82.027344 130.703125 C 82.003906 130.488281 82.003906 130.273438 82.027344 130.058594 C 82.1875 128.445312 83.664062 127.28125 85.28125 127.28125 L 98.691406 127.28125 L 98.691406 123.726562 C 98.691406 123.320312 98.765625 122.925781 98.921875 122.550781 C 99.078125 122.175781 99.300781 121.84375 99.585938 121.558594 C 99.875 121.269531 100.207031 121.046875 100.582031 120.890625 C 100.957031 120.738281 101.347656 120.660156 101.757812 120.660156 L 170.25 120.660156 C 170.65625 120.660156 171.050781 120.738281 171.425781 120.890625 C 171.800781 121.046875 172.132812 121.269531 172.417969 121.558594 C 172.707031 121.84375 172.929688 122.175781 173.085938 122.550781 C 173.238281 122.925781 173.316406 123.316406 173.316406 123.726562 L 173.316406 183.542969 C 173.316406 183.824219 173.289062 184.101562 173.234375 184.378906 C 173.179688 184.65625 173.097656 184.921875 172.992188 185.183594 C 172.882812 185.445312 172.75 185.691406 172.59375 185.925781 C 172.4375 186.160156 172.261719 186.375 172.0625 186.574219 C 171.863281 186.773438 171.644531 186.953125 171.410156 187.109375 C 171.175781 187.265625 170.929688 187.398438 170.667969 187.507812 C 170.40625 187.613281 170.140625 187.695312 169.863281 187.75 C 169.585938 187.804688 169.308594 187.832031 169.027344 187.832031 L 101.757812 187.832031 C 101.347656 187.832031 100.957031 187.753906 100.582031 187.597656 C 100.207031 187.445312 99.875 187.222656 99.585938 186.933594 C 99.300781 186.648438 99.078125 186.316406 98.921875 185.941406 C 98.765625 185.5625 98.691406 185.171875 98.691406 184.765625 L 98.691406 164.425781 L 106.625 164.425781 C 106.84375 164.425781 107.058594 164.402344 107.269531 164.359375 C 107.480469 164.3125 107.6875 164.246094 107.886719 164.160156 C 108.082031 164.070312 108.269531 163.964844 108.445312 163.835938 C 108.621094 163.710938 108.78125 163.566406 108.925781 163.402344 C 109.070312 163.242188 109.199219 163.070312 109.304688 162.882812 C 109.414062 162.695312 109.503906 162.496094 109.570312 162.289062 C 109.636719 162.085938 109.683594 161.875 109.707031 161.660156 C 109.726562 161.441406 109.726562 161.226562 109.707031 161.011719 C 109.542969 159.402344 108.070312 158.234375 106.449219 158.234375 Z M 98.691406 158.234375 " fill-opacity="1" fill-rule="nonzero"/></g></svg>