<svg width="327" height="391" viewBox="0 0 327 391" fill="none" xmlns="http://www.w3.org/2000/svg">
<path fill-rule="evenodd" clip-rule="evenodd" d="M161.027 390.282C110.638 278.758 177.411 150.508 266.863 117.099L203.146 102.929L155.157 161.547L142.255 117.096L89.677 175.935L97.179 199.398L98.6902 251.771C113.955 300.647 136.418 345.989 161.027 390.282Z" fill="url(#paint0_linear_1_1538)"/>
<path fill-rule="evenodd" clip-rule="evenodd" d="M161.027 390.282C110.638 278.758 177.411 150.508 266.863 117.099L203.146 102.929L155.157 161.547L142.255 117.096L89.677 175.935L97.179 199.398L98.6902 251.771C113.955 300.647 136.418 345.989 161.027 390.282Z" fill="black" fill-opacity="0.2"/>
<path fill-rule="evenodd" clip-rule="evenodd" d="M161.027 390.282C110.638 278.758 177.411 150.508 266.863 117.099L203.146 102.929L155.157 161.547L142.255 117.096L89.677 175.935L97.179 199.398L98.6902 251.771C113.955 300.647 136.418 345.989 161.027 390.282Z" fill="black" fill-opacity="0.2"/>
<path fill-rule="evenodd" clip-rule="evenodd" d="M149.132 3.60287e-05C138.333 55.3441 105.75 110.601 47.8449 165.759L34.8124 205.851L84.1793 149.01L79.3328 173.536L131.8 114.82L133.901 102.136L148.662 68.0797C153.279 41.5196 152.073 20.0083 149.132 3.60287e-05Z" fill="url(#paint1_linear_1_1538)"/>
<path fill-rule="evenodd" clip-rule="evenodd" d="M149.132 3.60287e-05C138.333 55.3441 105.75 110.601 47.8449 165.759L34.8124 205.851L84.1793 149.01L79.3328 173.536L131.8 114.82L133.901 102.136L148.662 68.0797C153.279 41.5196 152.073 20.0083 149.132 3.60287e-05Z" fill="black" fill-opacity="0.2"/>
<path fill-rule="evenodd" clip-rule="evenodd" d="M149.132 3.60287e-05C138.333 55.3441 105.75 110.601 47.8449 165.759L34.8124 205.851L84.1793 149.01L79.3328 173.536L131.8 114.82L133.901 102.136L148.662 68.0797C153.279 41.5196 152.073 20.0083 149.132 3.60287e-05Z" fill="black" fill-opacity="0.2"/>
<defs>
<linearGradient id="paint0_linear_1_1538" x1="117.071" y1="145.279" x2="263.241" y2="275.894" gradientUnits="userSpaceOnUse">
<stop stop-color="#032A2C"/>
<stop offset="1" stop-color="#00AFA1"/>
</linearGradient>
<linearGradient id="paint1_linear_1_1538" x1="117.201" y1="131.158" x2="69.7889" y2="88.7921" gradientUnits="userSpaceOnUse">
<stop stop-color="#032A2C"/>
<stop offset="1" stop-color="#00AFA1"/>
</linearGradient>
</defs>
</svg>
